<?xml version="1.0" encoding="UTF-8" standalone="no"?>
<!-- Created with Inkscape (http://www.inkscape.org/) -->

<svg
   version="1.1"
   id="svg1"
   width="1000"
   height="688.64215"
   viewBox="0 0 1000 688.64215"
   xml:space="preserve"
   xmlns="http://www.w3.org/2000/svg"
   xmlns:svg="http://www.w3.org/2000/svg"><defs
     id="defs1" /><path
     style="fill:#144aa8;fill-opacity:1;fill-rule:evenodd;stroke:none;stroke-width:6.31937"
     d="M 371.89163,0 5.5e-4,392.19812 0,550.60834 h 402.79572 v 138.03379 h 217.0037 V 552.6244 h 35.2074 l 43.8285,-160.54262 h -79.0359 V 0 Z m 26.02259,224.018 v 172.24673 h -155.5207 z"
     id="path3009" /><g
     id="g26"
     transform="matrix(0.77890029,0,0,0.77890029,-354.44098,-269.12342)"><path
       id="path1-2"
       style="fill:#ffffff;fill-opacity:1;stroke-width:11.8284"
       d="m 1492.9062,847.79492 c -30.2025,0.14781 -57.3805,17.58006 -70.2714,43.44922 -12.8634,-25.68905 -39.728,-43.1384 -69.7266,-43.44141 -6.4767,-0.0654 -13.0884,0.62515 -19.7012,2.1211 -46.973,10.50268 -68.2643,57.4747 -58.5175,96.29101 -12.2906,-7.41834 -26.057,-11.4637 -39.6856,-11.75195 -19.7737,-0.41823 -39.5231,6.30555 -54.6777,19.98633 -0.01,0.008 -0.018,0.0169 -0.027,0.0254 -14.286,12.95004 -24.5169,33.13437 -25.5332,56.75388 -0.9475,22.02 6.7236,41.6958 24.7793,58.9277 -32.6217,2.3994 -60.8342,26.7604 -69.2344,54.9161 l -0.01,0.019 c -8.0353,27.0431 -3.0705,54.0901 12.1504,73.5703 15.2208,19.4802 39.9938,30.9766 68.0156,30.9766 h 464.4629 c 28.0611,0 52.8466,-11.4941 68.0586,-30.9825 15.212,-19.4883 20.1412,-46.531 12.1094,-73.5624 v 0 c -8.3834,-28.1916 -36.8748,-52.613 -69.1914,-54.9902 19.7159,-18.8519 25.5688,-39.2152 24.7227,-58.8711 -1.0169,-23.6196 -11.2484,-43.80397 -25.5352,-56.75388 -0.01,-0.008 -0.018,-0.0169 -0.027,-0.0254 -15.1539,-13.68016 -34.9023,-20.40456 -54.6758,-19.98633 -13.6285,0.28826 -27.395,4.33363 -39.6856,11.75195 9.7473,-38.81701 -11.5452,-85.79022 -58.5195,-96.29101 -6.4694,-1.46394 -12.9377,-2.15995 -19.2813,-2.12891 z" /><path
       d="m 1550.4487,950.6036 -86.3472,197.2384 -24.6421,-171.41348 c -3.1547,-23.26171 36.4704,-37.6533 36.4704,-37.6533 -3.6467,-8.08234 -16.1646,-7.88599 -16.1646,-7.88599 h -26.8114 c -4.2382,-42.18713 34.0066,-72.84277 75.3078,-63.47823 40.6104,9.06764 55.3958,53.22775 42.1871,83.1926 z"
       fill="#6e55dc"
       id="path1"
       style="fill:#6e55dc;fill-opacity:1;stroke-width:11.8284" /><path
       d="m 1390.0747,1211.7153 -168.357,-112.1734 c -42.8779,-28.5844 -85.2626,0.5915 -94.2321,30.6557 -13.2087,44.4546 16.4604,81.5177 62.985,81.5177 z"
       fill="#fccc12"
       id="path2-8"
       style="fill:#fccc12;fill-opacity:1;stroke-width:11.8284" /><path
       d="m 1412.1465,933.64879 c 6.2098,-43.5675 -32.8238,-75.79986 -75.011,-66.23897 -40.6116,9.06882 -55.397,53.22774 -42.1883,83.19378 l 86.3473,197.2372 30.852,-214.29019 z"
       fill="#ef1541"
       id="path3-9"
       style="fill:#ef1541;fill-opacity:1;stroke-width:11.8284" /><path
       d="m 1374.395,1180.2707 -82.8969,-188.95851 c -19.4187,-43.76504 -70.774,-49.18599 -99.1622,-23.55861 -20.0089,18.13766 -35.4851,67.42182 9.1671,97.28852 z"
       fill="#ff7112"
       id="path4-7"
       style="fill:#ff7112;fill-opacity:1;stroke-width:11.8284" /><path
       d="m 1654.9336,1211.7153 c 46.6239,0 76.1949,-37.0619 62.9862,-81.5165 -8.9695,-30.1624 -51.3554,-59.3395 -94.2333,-30.6557 l -168.357,112.1722 z"
       fill="#05ac3f"
       id="path5-3"
       style="fill:#05ac3f;fill-opacity:1;stroke-width:11.8284" /><path
       d="m 1643.8918,1065.0421 c 44.6521,-29.8667 29.1771,-79.15086 9.167,-97.28852 -28.3881,-25.62738 -79.7423,-20.20643 -99.1609,23.55861 l -82.8969,188.95851 z"
       fill="#069de0"
       id="path6"
       style="fill:#069de0;fill-opacity:1;stroke-width:11.8284" /></g></svg>
