<?xml version="1.0" encoding="UTF-8" standalone="no"?>
<!-- Created with Inkscape (http://www.inkscape.org/) -->

<svg xmlns:dc="http://purl.org/dc/elements/1.1/" xmlns:cc="http://creativecommons.org/ns#" xmlns:rdf="http://www.w3.org/1999/02/22-rdf-syntax-ns#" xmlns:svg="http://www.w3.org/2000/svg" xmlns="http://www.w3.org/2000/svg" xmlns:xlink="http://www.w3.org/1999/xlink" xmlns:sodipodi="http://sodipodi.sourceforge.net/DTD/sodipodi-0.dtd" xmlns:inkscape="http://www.inkscape.org/namespaces/inkscape" width="1293.2177" height="691.10742" id="svg2" version="1.1" inkscape:version="0.48.5 r10040" sodipodi:docname="25704942.svg">
  <defs id="defs4"><linearGradient id="linearGradient3302" inkscape:collect="always">
  <stop id="stop3304" offset="0" style="stop-color:#416090;stop-opacity:1" />
  <stop style="stop-color:#23285b;stop-opacity:1" offset="0.46547768" id="stop3308" />
  <stop id="stop3306" offset="1" style="stop-color:#012f67;stop-opacity:1" />
</linearGradient>
<linearGradient inkscape:collect="always" id="linearGradient3067">
  <stop style="stop-color:white;stop-opacity:1;" offset="0" id="stop3069" />
  <stop style="stop-color:#e3e3e3;stop-opacity:1" offset="1" id="stop3071" />
</linearGradient>

	
	
	
	
	
<linearGradient inkscape:collect="always" xlink:href="#linearGradient3302" id="linearGradient3300" gradientUnits="userSpaceOnUse" gradientTransform="translate(-12.11144,23.67888)" x1="-370.32419" y1="-145.87366" x2="-370.32419" y2="25.164127" />
<radialGradient inkscape:collect="always" xlink:href="#linearGradient3067" id="radialGradient3310" gradientUnits="userSpaceOnUse" gradientTransform="matrix(5.0959741,8.3045509,-9.2729809,5.6901579,-349.22054,-278.00677)" cx="7.244154" cy="24.843355" fx="7.244154" fy="24.843355" r="30.275999" />
<radialGradient inkscape:collect="always" xlink:href="#SVGID_3_" id="radialGradient3312" gradientUnits="userSpaceOnUse" gradientTransform="matrix(0.73828402,2.7553282,2.7737115,-0.74320985,-1407.1998,1256.0679)" cx="-278.85822" cy="594.04834" fx="-278.85822" fy="594.04834" r="8.5801001" />
<radialGradient inkscape:collect="always" xlink:href="#linearGradient3067" id="radialGradient3384" gradientUnits="userSpaceOnUse" gradientTransform="matrix(5.0959741,8.3045509,-9.2729809,5.6901579,-349.22054,-269.43376)" cx="7.244154" cy="24.843355" fx="7.244154" fy="24.843355" r="30.275999" />
<radialGradient inkscape:collect="always" xlink:href="#SVGID_3_" id="radialGradient3386" gradientUnits="userSpaceOnUse" gradientTransform="matrix(0.73828402,2.7553282,2.7737115,-0.74320985,-1407.1998,1256.8559)" cx="-278.85822" cy="594.04834" fx="-278.85822" fy="594.04834" r="8.5801001" />
<linearGradient inkscape:collect="always" xlink:href="#linearGradient3302" id="linearGradient3388" gradientUnits="userSpaceOnUse" gradientTransform="translate(-12.11144,32.25189)" x1="-370.32419" y1="-145.87366" x2="-370.32419" y2="25.164127" />
</defs>
  <sodipodi:namedview id="base" pagecolor="#ffffff" bordercolor="#666666" borderopacity="1.0" inkscape:pageopacity="0.0" inkscape:pageshadow="2" inkscape:zoom="0.35" inkscape:cx="1109.6943" inkscape:cy="373.26061" inkscape:document-units="px" inkscape:current-layer="layer1" showgrid="false" fit-margin-top="0" fit-margin-left="0" fit-margin-right="0" fit-margin-bottom="0" inkscape:object-paths="false" inkscape:window-width="1366" inkscape:window-height="706" inkscape:window-x="-8" inkscape:window-y="-8" inkscape:window-maximized="1" />
  <metadata id="metadata7">
    <rdf:RDF>
      <cc:Work rdf:about="">
        <dc:format>image/svg+xml</dc:format>
        <dc:type rdf:resource="http://purl.org/dc/dcmitype/StillImage" />
        <dc:title></dc:title>
      </cc:Work>
    </rdf:RDF>
  </metadata>
  <g inkscape:label="Layer 1" inkscape:groupmode="layer" id="layer1" transform="translate(727.21455,151.84005)">
    <g id="g3348">
      <g transform="matrix(1.235172,0,0,1.235172,227.95653,-292.67118)" id="g3256">
        <circle d="m 94.562997,15.516 c 0,7.188538 -5.827462,13.016 -13.016,13.016 -7.188538,0 -13.016,-5.827462 -13.016,-13.016 0,-7.1885384 5.827462,-13.016 13.016,-13.016 7.188538,0 13.016,5.8274616 13.016,13.016 z" style="fill:white" sodipodi:ry="13.016" sodipodi:rx="13.016" sodipodi:cy="15.516" sodipodi:cx="81.546997" id="circle3127" r="13.016" cy="15.516" cx="81.546997" transform="matrix(10.879617,0,0,10.879617,-755.12545,214.99339)" />
        <g style="opacity:0.25" id="_x35_" transform="matrix(10.879617,0,0,10.879617,-755.12545,217.28045)">
		
		<g id="g3161">
  <g id="g3078">
    <path style="fill:#8d8c8e" inkscape:connector-curvature="0" id="path3130" d="m 85.959,17.877 c 0,-2 -1.623,-3.623 -3.62,-3.623 -1.929,0 -3.5,1.503 -3.616,3.4 H 75.119 V 9.651 6.532 H 90.972 C 88.598,4.047 85.254,2.5 81.548,2.5 c -7.19,0 -13.017,5.825 -13.017,13.015 0,2.243 0.567,4.352 1.565,6.193 h 12.242 c 1.998,0 3.621,-1.831 3.621,-3.831" />
    <path style="fill:#8d8c8e" inkscape:connector-curvature="0" id="path3132" d="M 93.169,9.651 H 78.234 v 2.618 c 1.151,-0.837 2.57,-1.34 4.103,-1.34 3.835,0 6.944,3.114 6.944,6.949 0,3.837 -3.109,6.947 -6.944,6.947 h -9.885 c 2.347,2.289 5.559,3.707 9.096,3.707 7.192,0 13.015,-5.827 13.015,-13.017 0,-2.111 -0.501,-4.101 -1.394,-5.864" />
  </g>
</g>

	</g>
      </g>
      <polygon transform="matrix(10.879617,0,0,10.879617,-755.12545,-211.4592)" points="75.867,34.144 80.335,34.144 85.971,48.582 89.217,48.582 95.966,31.303 92.006,31.303 87.644,43.386 83.279,31.303 81.468,31.303 79.229,31.303 67.128,31.303 67.128,34.144 72.734,34.144 72.734,48.746 75.867,48.746 " id="polygon3134" style="fill:#1d3464" />
      <g id="g3136">
        <rect id="Clear_Box" width="100" height="70" x="-715.10309" y="455.60294" style="fill:none" />
        <path style="fill:url(#radialGradient3384);fill-opacity:1" d="m -36.107103,193.71367 c 0,190.84405 -154.709677,345.55372 -345.553717,345.55372 -190.84406,0 -345.55373,-154.70967 -345.55373,-345.55372 0,-190.8440547 154.70967,-345.55372 345.55373,-345.55372 190.84404,0 345.553717,154.7096653 345.553717,345.55372 z" id="circle3057" inkscape:connector-curvature="0" />
        <path style="fill:white" d="m -52.269564,193.71366 c 0,181.91778 -147.473506,329.39128 -329.391276,329.39128 -181.91778,0 -329.39128,-147.4735 -329.39128,-329.39128 0,-181.917778 147.4735,-329.39127 329.39128,-329.39127 181.91777,0 329.391276,147.473492 329.391276,329.39127 z" id="circle3136" inkscape:connector-curvature="0" />
        <g id="g3138" transform="matrix(10.879617,0,0,10.879617,-755.12545,-211.29098)">
		<defs id="defs3140">
			<path inkscape:connector-curvature="0" d="m 24.222,26.312 h 6.664 L 22.369,36.41 32.547,48.433 h -7.055 l -6.598,-7.896 -2.599,3.055 v 4.841 H 10.363 V 26.312 h 5.932 v 9.317 l 7.927,-9.317 z m 15.734,17.407 c 0.795,-0.22 1.286,-0.754 1.286,-1.454 l 0.041,-0.026 c 0,-1.09 -0.892,-1.67 -3.84,-2.303 -4.565,-1.053 -8.315,-2.274 -8.244,-6.898 v -0.102 c 0.05,-4.197 3.568,-7.013 8.688,-7.013 3.631,0 6.568,0.93 8.938,2.847 l -2.99,4.167 C 41.826,31.589 39.621,30.8 37.633,30.8 c -1.777,0 -2.406,0.822 -2.406,1.573 v 0.075 c -0.033,1.114 0.775,1.597 3.938,2.291 4.904,1.081 8.191,2.679 8.089,6.834 v 0.103 c -0.042,4.433 -3.552,7.155 -9.006,7.155 -1.14,0 -2.514,-0.328 -2.754,-0.386 l -5.628,-6.801 c 1.126,0.664 2.166,1.151 3.083,1.479 1.893,0.646 3.592,0.831 4.863,0.831 1.038,-0.002 1.791,-0.119 2.144,-0.235 M 4.052,37.254 c 0,16.693 13.564,30.246 30.272,30.246 12.751,0 23.686,-7.888 28.135,-19.066 H 48.148 v -2.002 c 0.821,-1.398 1.247,-2.992 1.247,-4.759 V 41.57 c 0,-1.665 -0.426,-3.174 -1.247,-4.447 V 26.264 h 5.955 v 16.965 h 9.889 c 0.385,-1.902 0.61,-3.944 0.61,-5.976 C 64.602,20.532 51.012,6.948 34.324,6.948 17.616,6.949 4.052,20.533 4.052,37.254" id="SVGID_1_" />

		</defs>

		<clipPath id="SVGID_2_">
			<use height="70" width="100" y="0" x="0" style="overflow:visible" id="use3144" overflow="visible" xlink:href="#SVGID_1_" />

		</clipPath>

		
			<radialGradient fy="594.04834" fx="-278.85822" gradientUnits="userSpaceOnUse" gradientTransform="matrix(0.73828402,2.7553282,2.7737115,-0.74320985,-1406.0866,1253.8915)" r="8.5801001" cy="594.04834" cx="-278.85822" id="SVGID_3_">
			<stop id="stop3147" style="stop-color:#27AAE1" offset="0" />

			<stop id="stop3149" style="stop-color:#27AAE1" offset="0.31400022" />

			<stop id="stop3151" style="stop-color:#002D65" offset="1" />

		</radialGradient>

		<path style="fill:url(#radialGradient3386)" clip-path="url(#SVGID_2_)" d="M 83.969,60.492 11.041,86.877 -15.333,13.955 57.586,-12.422 z" id="polygon3153" inkscape:connector-curvature="0" />

	</g>
        <path style="fill:url(#linearGradient3388);fill-opacity:1;fill-rule:evenodd;stroke:none" d="m -187.72054,-35.300888 c 0,48.590989 -87.32346,87.981764 -195.0424,87.981764 -107.71894,0 -195.04239,-39.390775 -195.04239,-87.981764 0,-48.590987 87.32345,-87.981762 195.04239,-87.981762 107.71894,0 195.0424,39.390775 195.0424,87.981762 z" id="path3046" inkscape:connector-curvature="0" />
      </g>
      <g transform="matrix(1.0937422,0,0,1.0937422,-33.145227,-85.573457)" id="g4416">
        <g id="g4401">
          <path inkscape:connector-curvature="0" style="fill:white" d="M 151.469,30.834 C 147.029,19.773 136.211,7.826 115.948,9.467 90.139,12.266 82.094,36.943 85.995,51.664 75.715,44.72 58.236,41.666 42.978,54.704 c -19.7,19.7 -9.164,46.342 1.668,52.733 -11.935,-1.103 -30.799,6.943 -34.972,27.988 -4.44,26.13 15.528,41.363 34.972,41.363 h 215.6 c 22.484,0 34.958,-19.403 33.559,-37.703 -2.207,-23.883 -24.114,-33.047 -36.062,-31.083 9.984,-5.557 23.318,-31.66 3.041,-52.182 -16.093,-15.272 -36.612,-9.715 -43.825,-3.054 3.888,-12.757 -2.489,-39.129 -28.593,-43.301 -1.803,-0.201 -3.54,-0.31 -5.196,-0.31 -19.928,0.003 -28.888,14.534 -31.701,21.679" id="path2986" />
          <g id="g4393">
            <path inkscape:connector-curvature="0" id="path2988" d="M 46.569,58.862 C 35.187,69.142 31.042,92.434 51.562,106.05 L 133.425,162.078 93.732,71.362 C 85.415,49.955 62.662,45.286 46.569,58.862" style="fill:#f16927;fill-opacity:1" />
            <path inkscape:connector-curvature="0" id="path2990" d="m 117.036,14.755 c -13.308,0.27 -33.289,16.079 -24.395,40.218 l 41.052,96.585 14.424,-101.589 C 151.455,24.726 132.308,13.073 117.036,14.755" style="fill:#cf212a;fill-opacity:1" />
            <path inkscape:connector-curvature="0" id="path2992" d="m 154.524,46.094 h 7.763 c 0,0 4.145,0 4.708,1.951 -3.054,2.489 -11.368,2.8 -10.266,16.093 l 13.051,87.406 40.771,-96.839 c 8.341,-21.622 -9.165,-39.68 -24.692,-40.232 -0.726,-0.053 -1.453,-0.095 -2.206,-0.095 -13.939,0 -29.909,10.106 -29.129,31.716" style="fill:#604ea2;fill-opacity:1" />
            <path inkscape:connector-curvature="0" id="path2994" d="m 208.911,72.184 -38.564,89.628 81.836,-56.324 c 18.866,-13.348 15.824,-34.689 5.263,-45.238 -4.428,-4.965 -12.555,-8.8 -21.165,-8.8 -10.174,-0.002 -21.059,5.381 -27.37,20.734" style="fill:#4b68b0;fill-opacity:1" />
            <path inkscape:connector-curvature="0" id="path2996" d="m 243.021,118.242 -76.856,53.554 h 94.632 c 19.415,0 31.89,-19.97 26.345,-38.296 -3.714,-11.518 -14.707,-20.56 -27.463,-20.573 -5.369,10e-4 -11.062,1.615 -16.658,5.315" style="fill:#149d46;fill-opacity:1" />
            <path inkscape:connector-curvature="0" id="path2998" d="m 44.363,171.796 h 93.234 L 60.724,118.242 c -17.761,-11.384 -37.729,-4.723 -44.94,14.167 -6.11,21.625 9.149,39.387 28.579,39.387" style="fill:#fdb515;fill-opacity:1" />
          </g>
        </g>
        <g id="g4411" />
      </g>
    </g>
  </g>
</svg>
