<?xml version="1.0" encoding="UTF-8" standalone="no"?>
<!-- Created with Inkscape (http://www.inkscape.org/) -->

<svg
   id="svg2985"
   version="1.1"
   inkscape:version="1.2.2 (b0a8486541, 2022-12-01)"
   width="872.05103"
   height="585.14087"
   sodipodi:docname="KXAS 2023.svg"
   xmlns:inkscape="http://www.inkscape.org/namespaces/inkscape"
   xmlns:sodipodi="http://sodipodi.sourceforge.net/DTD/sodipodi-0.dtd"
   xmlns:xlink="http://www.w3.org/1999/xlink"
   xmlns="http://www.w3.org/2000/svg"
   xmlns:svg="http://www.w3.org/2000/svg"
   xmlns:rdf="http://www.w3.org/1999/02/22-rdf-syntax-ns#"
   xmlns:cc="http://creativecommons.org/ns#"
   xmlns:dc="http://purl.org/dc/elements/1.1/">
  <metadata
     id="metadata2991">
    <rdf:RDF>
      <cc:Work
         rdf:about="">
        <dc:format>image/svg+xml</dc:format>
        <dc:type
           rdf:resource="http://purl.org/dc/dcmitype/StillImage" />
      </cc:Work>
    </rdf:RDF>
  </metadata>
  <defs
     id="defs2989">
    <linearGradient
       id="linearGradient3313"
       inkscape:collect="always">
      <stop
         id="stop3315"
         offset="0"
         style="stop-color:#4b99d7;stop-opacity:1" />
      <stop
         id="stop3317"
         offset="1"
         style="stop-color:#2575b2;stop-opacity:1" />
    </linearGradient>
    <linearGradient
       id="linearGradient3307"
       inkscape:collect="always">
      <stop
         id="stop3309"
         offset="0"
         style="stop-color:#8079bc;stop-opacity:1" />
      <stop
         id="stop3311"
         offset="1"
         style="stop-color:#5a4f94;stop-opacity:1" />
    </linearGradient>
    <linearGradient
       id="linearGradient3301"
       inkscape:collect="always">
      <stop
         id="stop3303"
         offset="0"
         style="stop-color:#e02d55;stop-opacity:1" />
      <stop
         id="stop3305"
         offset="1"
         style="stop-color:#b42842;stop-opacity:1" />
    </linearGradient>
    <linearGradient
       id="linearGradient3295"
       inkscape:collect="always">
      <stop
         id="stop3297"
         offset="0"
         style="stop-color:#ff9b24;stop-opacity:1" />
      <stop
         id="stop3299"
         offset="1"
         style="stop-color:#e6701e;stop-opacity:1" />
    </linearGradient>
    <linearGradient
       id="linearGradient3289"
       inkscape:collect="always">
      <stop
         id="stop3291"
         offset="0"
         style="stop-color:#50be55;stop-opacity:1" />
      <stop
         id="stop3293"
         offset="1"
         style="stop-color:#0d9d31;stop-opacity:1" />
    </linearGradient>
    <linearGradient
       id="linearGradient3283"
       inkscape:collect="always">
      <stop
         id="stop3285"
         offset="0"
         style="stop-color:#f9e81a;stop-opacity:1" />
      <stop
         id="stop3287"
         offset="1"
         style="stop-color:#ebaf13;stop-opacity:1" />
    </linearGradient>
    <linearGradient
       inkscape:collect="always"
       id="linearGradient3243">
      <stop
         style="stop-color:white;stop-opacity:1"
         offset="0"
         id="stop3245" />
      <stop
         style="stop-color:black;stop-opacity:0;"
         offset="1"
         id="stop3247" />
    </linearGradient>
    <linearGradient
       id="linearGradient3017">
      <stop
         style="stop-color:#194395;stop-opacity:1"
         offset="0"
         id="stop3019" />
      <stop
         style="stop-color:#1749a6;stop-opacity:1"
         offset="1"
         id="stop3021" />
    </linearGradient>
    <radialGradient
       inkscape:collect="always"
       xlink:href="#linearGradient3243"
       id="radialGradient3249"
       cx="402.1792"
       cy="615.66406"
       fx="402.1792"
       fy="615.66406"
       r="214.61662"
       gradientTransform="matrix(-9.6526379e-6,0.70806566,-0.74235928,0,859.22701,286.68917)"
       gradientUnits="userSpaceOnUse" />
    <linearGradient
       inkscape:collect="always"
       xlink:href="#linearGradient3017"
       id="linearGradient3524"
       gradientUnits="userSpaceOnUse"
       x1="264.78802"
       y1="583.90088"
       x2="264.78802"
       y2="630.27026"
       gradientTransform="translate(13.408227,5.3638126)" />
    <radialGradient
       inkscape:collect="always"
       xlink:href="#linearGradient3295"
       id="radialGradient3526"
       gradientUnits="userSpaceOnUse"
       gradientTransform="matrix(-9.6526379e-6,0.70806566,-0.74235928,0,1039.9911,352.86026)"
       cx="402.1792"
       cy="615.66406"
       fx="402.1792"
       fy="615.66406"
       r="214.61662" />
    <radialGradient
       inkscape:collect="always"
       xlink:href="#linearGradient3301"
       id="radialGradient3528"
       gradientUnits="userSpaceOnUse"
       gradientTransform="matrix(-9.6526379e-6,0.70806566,-0.74235928,0,1039.9911,352.86026)"
       cx="402.1792"
       cy="615.66406"
       fx="402.1792"
       fy="615.66406"
       r="214.61662" />
    <radialGradient
       inkscape:collect="always"
       xlink:href="#linearGradient3307"
       id="radialGradient3530"
       gradientUnits="userSpaceOnUse"
       gradientTransform="matrix(-9.6526379e-6,0.70806566,-0.74235928,0,1039.9911,352.86026)"
       cx="402.1792"
       cy="615.66406"
       fx="402.1792"
       fy="615.66406"
       r="214.61662" />
    <radialGradient
       inkscape:collect="always"
       xlink:href="#linearGradient3313"
       id="radialGradient3532"
       gradientUnits="userSpaceOnUse"
       gradientTransform="matrix(-9.6526379e-6,0.70806566,-0.74235928,0,1039.9911,352.86026)"
       cx="402.1792"
       cy="615.66406"
       fx="402.1792"
       fy="615.66406"
       r="214.61662" />
    <radialGradient
       inkscape:collect="always"
       xlink:href="#linearGradient3289"
       id="radialGradient3534"
       gradientUnits="userSpaceOnUse"
       gradientTransform="matrix(-9.6526379e-6,0.70806566,-0.74235928,0,1039.9911,352.86026)"
       cx="402.1792"
       cy="615.66406"
       fx="402.1792"
       fy="615.66406"
       r="214.61662" />
    <radialGradient
       inkscape:collect="always"
       xlink:href="#linearGradient3283"
       id="radialGradient3536"
       gradientUnits="userSpaceOnUse"
       gradientTransform="matrix(-9.6526379e-6,0.70806566,-0.74235928,0,1039.9911,352.86026)"
       cx="402.1792"
       cy="615.66406"
       fx="402.1792"
       fy="615.66406"
       r="214.61662" />
    <radialGradient
       inkscape:collect="always"
       xlink:href="#linearGradient3301"
       id="radialGradient3547"
       gradientUnits="userSpaceOnUse"
       gradientTransform="matrix(-9.6526379e-6,0.70806566,-0.74235928,0,1039.9911,352.86026)"
       cx="352.11096"
       cy="857.25085"
       fx="352.11096"
       fy="857.25085"
       r="214.61662" />
    <radialGradient
       inkscape:collect="always"
       xlink:href="#linearGradient3295"
       id="radialGradient3549"
       gradientUnits="userSpaceOnUse"
       gradientTransform="matrix(-9.6526379e-6,0.70806566,-0.74235928,0,1039.9911,352.86026)"
       cx="352.11096"
       cy="857.25049"
       fx="352.11096"
       fy="857.25049"
       r="214.61662" />
    <radialGradient
       inkscape:collect="always"
       xlink:href="#linearGradient3313"
       id="radialGradient3551"
       gradientUnits="userSpaceOnUse"
       gradientTransform="matrix(-9.6526379e-6,0.70806566,-0.74235928,0,1039.9911,352.86026)"
       cx="352.16202"
       cy="857.23962"
       fx="352.16202"
       fy="857.23962"
       r="214.61662" />
    <radialGradient
       inkscape:collect="always"
       xlink:href="#linearGradient3283"
       id="radialGradient3553"
       gradientUnits="userSpaceOnUse"
       gradientTransform="matrix(-9.6526379e-6,0.70806566,-0.74235928,0,1039.9911,352.86026)"
       cx="352.11096"
       cy="857.25049"
       fx="352.11096"
       fy="857.25049"
       r="214.61662" />
    <radialGradient
       inkscape:collect="always"
       xlink:href="#linearGradient3289"
       id="radialGradient3555"
       gradientUnits="userSpaceOnUse"
       gradientTransform="matrix(-9.6526379e-6,0.70806566,-0.74235928,0,1039.9911,352.86026)"
       cx="352.11096"
       cy="857.25049"
       fx="352.11096"
       fy="857.25049"
       r="214.61662" />
    <radialGradient
       inkscape:collect="always"
       xlink:href="#linearGradient3307"
       id="radialGradient3557"
       gradientUnits="userSpaceOnUse"
       gradientTransform="matrix(-9.6526379e-6,0.70806566,-0.74235928,0,1039.9911,352.86026)"
       cx="402.1792"
       cy="615.66406"
       fx="402.1792"
       fy="615.66406"
       r="214.61662" />
    <radialGradient
       inkscape:collect="always"
       xlink:href="#linearGradient3283"
       id="radialGradient3575"
       gradientUnits="userSpaceOnUse"
       gradientTransform="matrix(-9.6526379e-6,0.70806566,-0.74235928,0,859.22704,286.68917)"
       cx="352.11096"
       cy="857.25049"
       fx="352.11096"
       fy="857.25049"
       r="214.61662" />
    <radialGradient
       inkscape:collect="always"
       xlink:href="#linearGradient3289"
       id="radialGradient3578"
       gradientUnits="userSpaceOnUse"
       gradientTransform="matrix(-9.6526379e-6,0.70806566,-0.74235928,0,859.22704,286.68917)"
       cx="352.11096"
       cy="857.25049"
       fx="352.11096"
       fy="857.25049"
       r="214.61662" />
    <radialGradient
       inkscape:collect="always"
       xlink:href="#linearGradient3313"
       id="radialGradient3581"
       gradientUnits="userSpaceOnUse"
       gradientTransform="matrix(-9.6526379e-6,0.70806566,-0.74235928,0,859.22704,286.68917)"
       cx="352.16202"
       cy="857.23962"
       fx="352.16202"
       fy="857.23962"
       r="214.61662" />
    <radialGradient
       inkscape:collect="always"
       xlink:href="#linearGradient3307"
       id="radialGradient3584"
       gradientUnits="userSpaceOnUse"
       gradientTransform="matrix(-9.6526379e-6,0.70806566,-0.74235928,0,859.22704,286.68917)"
       cx="402.1792"
       cy="615.66406"
       fx="402.1792"
       fy="615.66406"
       r="214.61662" />
    <radialGradient
       inkscape:collect="always"
       xlink:href="#linearGradient3301"
       id="radialGradient3587"
       gradientUnits="userSpaceOnUse"
       gradientTransform="matrix(-9.6526379e-6,0.70806566,-0.74235928,0,859.22704,286.68917)"
       cx="352.11096"
       cy="857.25085"
       fx="352.11096"
       fy="857.25085"
       r="214.61662" />
    <radialGradient
       inkscape:collect="always"
       xlink:href="#linearGradient3295"
       id="radialGradient3590"
       gradientUnits="userSpaceOnUse"
       gradientTransform="matrix(-9.6526379e-6,0.70806566,-0.74235928,0,859.22704,286.68917)"
       cx="352.11096"
       cy="857.25049"
       fx="352.11096"
       fy="857.25049"
       r="214.61662" />
    <linearGradient
       inkscape:collect="always"
       xlink:href="#linearGradient3017"
       id="linearGradient3597"
       gradientUnits="userSpaceOnUse"
       gradientTransform="translate(13.408227,5.3638126)"
       x1="264.78802"
       y1="583.90088"
       x2="264.78802"
       y2="630.27026" />
    <linearGradient
       inkscape:collect="always"
       xlink:href="#linearGradient3017"
       id="linearGradient3602"
       gradientUnits="userSpaceOnUse"
       gradientTransform="translate(13.408227,5.3638126)"
       x1="264.78802"
       y1="583.90088"
       x2="264.78802"
       y2="630.27026" />
    <linearGradient
       inkscape:collect="always"
       xlink:href="#linearGradient3017"
       id="linearGradient3605"
       gradientUnits="userSpaceOnUse"
       gradientTransform="matrix(13.481579,0,0,12.336577,-2989.2671,-7191.3649)"
       x1="264.78802"
       y1="583.90088"
       x2="264.78802"
       y2="630.27026" />
    <linearGradient
       inkscape:collect="always"
       xlink:href="#linearGradient3017"
       id="linearGradient3632"
       gradientUnits="userSpaceOnUse"
       gradientTransform="matrix(13.481579,0,0,12.336577,-2989.2671,-7191.3649)"
       x1="264.78802"
       y1="583.90088"
       x2="264.78802"
       y2="630.27026" />
    <radialGradient
       inkscape:collect="always"
       xlink:href="#linearGradient3295"
       id="radialGradient3634"
       gradientUnits="userSpaceOnUse"
       gradientTransform="matrix(-9.6526379e-6,0.70806566,-0.74235928,0,859.22704,286.68917)"
       cx="352.11096"
       cy="857.25049"
       fx="352.11096"
       fy="857.25049"
       r="214.61662" />
    <radialGradient
       inkscape:collect="always"
       xlink:href="#linearGradient3301"
       id="radialGradient3636"
       gradientUnits="userSpaceOnUse"
       gradientTransform="matrix(-9.6526379e-6,0.70806566,-0.74235928,0,859.22704,286.68917)"
       cx="352.11096"
       cy="857.25085"
       fx="352.11096"
       fy="857.25085"
       r="214.61662" />
    <radialGradient
       inkscape:collect="always"
       xlink:href="#linearGradient3307"
       id="radialGradient3638"
       gradientUnits="userSpaceOnUse"
       gradientTransform="matrix(-9.6526379e-6,0.70806566,-0.74235928,0,859.22704,286.68917)"
       cx="402.1792"
       cy="615.66406"
       fx="402.1792"
       fy="615.66406"
       r="214.61662" />
    <radialGradient
       inkscape:collect="always"
       xlink:href="#linearGradient3313"
       id="radialGradient3640"
       gradientUnits="userSpaceOnUse"
       gradientTransform="matrix(-9.6526379e-6,0.70806566,-0.74235928,0,859.22704,286.68917)"
       cx="352.16202"
       cy="857.23962"
       fx="352.16202"
       fy="857.23962"
       r="214.61662" />
    <radialGradient
       inkscape:collect="always"
       xlink:href="#linearGradient3289"
       id="radialGradient3642"
       gradientUnits="userSpaceOnUse"
       gradientTransform="matrix(-9.6526379e-6,0.70806566,-0.74235928,0,859.22704,286.68917)"
       cx="352.11096"
       cy="857.25049"
       fx="352.11096"
       fy="857.25049"
       r="214.61662" />
    <radialGradient
       inkscape:collect="always"
       xlink:href="#linearGradient3283"
       id="radialGradient3644"
       gradientUnits="userSpaceOnUse"
       gradientTransform="matrix(-9.6526379e-6,0.70806566,-0.74235928,0,859.22704,286.68917)"
       cx="352.11096"
       cy="857.25049"
       fx="352.11096"
       fy="857.25049"
       r="214.61662" />
    <radialGradient
       inkscape:collect="always"
       xlink:href="#linearGradient3283"
       id="radialGradient3662"
       gradientUnits="userSpaceOnUse"
       gradientTransform="matrix(-9.6526379e-6,0.70806566,-0.74235928,0,859.22704,286.68917)"
       cx="352.11096"
       cy="857.25049"
       fx="352.11096"
       fy="857.25049"
       r="214.61662" />
    <radialGradient
       inkscape:collect="always"
       xlink:href="#linearGradient3289"
       id="radialGradient3665"
       gradientUnits="userSpaceOnUse"
       gradientTransform="matrix(-9.6526379e-6,0.70806566,-0.74235928,0,859.22704,286.68917)"
       cx="352.11096"
       cy="857.25049"
       fx="352.11096"
       fy="857.25049"
       r="214.61662" />
    <radialGradient
       inkscape:collect="always"
       xlink:href="#linearGradient3313"
       id="radialGradient3668"
       gradientUnits="userSpaceOnUse"
       gradientTransform="matrix(-9.6526379e-6,0.70806566,-0.74235928,0,859.22704,286.68917)"
       cx="352.16202"
       cy="857.23962"
       fx="352.16202"
       fy="857.23962"
       r="214.61662" />
    <radialGradient
       inkscape:collect="always"
       xlink:href="#linearGradient3307"
       id="radialGradient3671"
       gradientUnits="userSpaceOnUse"
       gradientTransform="matrix(-9.6526379e-6,0.70806566,-0.74235928,0,859.22704,286.68917)"
       cx="402.1792"
       cy="615.66406"
       fx="402.1792"
       fy="615.66406"
       r="214.61662" />
    <radialGradient
       inkscape:collect="always"
       xlink:href="#linearGradient3301"
       id="radialGradient3674"
       gradientUnits="userSpaceOnUse"
       gradientTransform="matrix(-9.6526379e-6,0.70806566,-0.74235928,0,859.22704,286.68917)"
       cx="352.11096"
       cy="857.25085"
       fx="352.11096"
       fy="857.25085"
       r="214.61662" />
    <radialGradient
       inkscape:collect="always"
       xlink:href="#linearGradient3295"
       id="radialGradient3677"
       gradientUnits="userSpaceOnUse"
       gradientTransform="matrix(-9.6526379e-6,0.70806566,-0.74235928,0,859.22704,286.68917)"
       cx="352.11096"
       cy="857.25049"
       fx="352.11096"
       fy="857.25049"
       r="214.61662" />
    <linearGradient
       inkscape:collect="always"
       xlink:href="#linearGradient3017"
       id="linearGradient3681"
       gradientUnits="userSpaceOnUse"
       gradientTransform="matrix(13.481579,0,0,12.336577,-2989.2671,-7191.3649)"
       x1="264.78802"
       y1="583.90088"
       x2="264.78802"
       y2="630.27026" />
    <linearGradient
       inkscape:collect="always"
       xlink:href="#linearGradient3017"
       id="linearGradient3693"
       gradientUnits="userSpaceOnUse"
       gradientTransform="matrix(13.481579,0,0,12.336577,-2989.2671,-7191.3649)"
       x1="264.78802"
       y1="583.90088"
       x2="264.78802"
       y2="630.27026" />
  </defs>
  <sodipodi:namedview
     pagecolor="#ffffff"
     bordercolor="#666666"
     borderopacity="1"
     objecttolerance="10"
     gridtolerance="10"
     guidetolerance="10"
     inkscape:pageopacity="0"
     inkscape:pageshadow="2"
     inkscape:window-width="1187"
     inkscape:window-height="582"
     id="namedview2987"
     showgrid="false"
     inkscape:zoom="0.27085177"
     inkscape:cx="256.59792"
     inkscape:cy="430.12456"
     inkscape:window-x="0"
     inkscape:window-y="0"
     inkscape:window-maximized="1"
     inkscape:current-layer="g3683"
     fit-margin-top="0"
     fit-margin-left="0"
     fit-margin-right="0"
     fit-margin-bottom="0"
     inkscape:showpageshadow="2"
     inkscape:pagecheckerboard="0"
     inkscape:deskcolor="#d1d1d1"
     showguides="true" />
  <g
     id="g3683"
     transform="translate(-1.2918866e-6,4.324122e-5)">
    <path
       style="font-size:64px;font-style:normal;font-variant:normal;font-weight:900;font-stretch:normal;line-height:125%;letter-spacing:0px;word-spacing:0px;fill:url(#linearGradient3693);fill-opacity:1;stroke:none;font-family:Helvetica-Black;-inkscape-font-specification:Helvetica-Black Heavy"
       d="M 449.31371,-4.324122e-5 342.8757,324.0954 c 26.84924,-0.41944 89.42817,-0.29854 107.35085,-0.29854 l 111.46394,0 47.06797,-86.13842 20.56952,87.26598 127.814,0 -114.63953,76.09115 25.64371,103.05224 -91.52387,-64.81539 -107.87407,60.30501 54.39709,-99.10577 L 420.37618,321.4687 314.97841,436.21305 c 17.25574,51.57923 82.58855,115.98036 131.29683,129.03172 34.78274,9.32003 63.80561,19.89606 129.94907,19.89606 52.06047,0 78.54799,-4.47818 111.79478,-15.62317 31.30032,-10.4925 64.05193,-33.34515 88.61172,-51.29388 24.24649,-17.71964 36.35092,-29.40312 58.30648,-58.17375 14.75559,-24.44862 36.35079,-54.71666 36.35079,-109.44122 0.56353,-24.55251 -3.10022,-53.84447 -13.45664,-75.6907 -10.35749,-21.84574 -28.25375,-40.43215 -47.2292,-55.69249 -38.53198,-31.06597 -108.24158,-55.692 -168.06568,-55.69237 -25.89272,3.7e-4 -48.91616,2.07168 -69.04173,6.28783 -20.12611,4.21701 -32.13483,7.04246 -49.40904,16.16881 l 22.90951,-65.94295 302.50399,0 22.55171,-118.9185565 -422.17295,0 z"
       id="path3024"
       inkscape:connector-curvature="0"
       sodipodi:nodetypes="ccccccccccccccsssscccccccccccc" />
    <g
       id="g638"
       transform="matrix(0.955275,0,0,0.98758288,0.28176144,-165.58996)">
      <g
         id="g569"
         transform="matrix(0.3561918,0,0,0.33424835,-0.21395749,485.78257)">
        <path
           class="st0"
           d="m 584.3,795.4 v 0 H 170.4 c -36.6,0 -79.5,-14.5 -107,-36.2 C 22.3,726.8 1.5,683.6 0,627.1 -0.6,603.5 4.8,578.2 14.9,557.8 25,537.3 37.6,515.3 69.6,490.5 91.5,473.6 116.8,462.8 143.7,458.7 126.8,440.8 114.5,420.2 107,397 95.4,361.2 94.9,304.1 128.3,251.3 c 12.1,-19 30.3,-36.8 50.2,-48.8 26,-15.7 56.4,-24 87.8,-24 27,0 53.7,6.3 77.2,17.9 -4,-23.4 -3,-47.5 3.1,-71.2 12.6,-49.3 44.7,-87.6 92.8,-110.7 l 0.9,-0.4 C 460.2,5.2 484.5,0 507.3,0 571.7,0 626.7,30.9 655.8,82 684.4,32.2 741,0 803.6,0 825,0 849.4,5.5 870.5,15.1 l 0.9,0.4 c 48.2,23.3 79.1,60.2 91.8,109.8 6.6,25.8 8.1,48.5 4.2,71 23.5,-11.6 50.1,-17.8 77,-17.8 31.4,0 61.8,8.3 87.8,24 19.8,12 38.1,29.7 50.2,48.8 33.4,52.8 32.9,109.9 21.3,145.7 -7.5,23.1 -19.7,43.7 -36.6,61.6 27.4,4 53.1,14.8 75.3,31.9 33.1,25.6 44.6,49 53.1,66.1 l 0.6,1.2 c 10.1,20.4 15.5,45.7 14.9,69.3 -1.5,56.4 -22.2,99.7 -63.4,132.1 -27.4,21.6 -70.4,36.2 -107,36.2 h -415 v 0 z"
           id="path1731"
           style="fill:#ffffff" />
        <g
           id="g1745">
          <path
             class="st1"
             d="M 921.4,136 C 913.5,105 894.5,74.6 852.7,54.4 838,47.7 819.6,43.2 803.6,43.2 c -51.4,0 -99.9,29 -117.4,75.3 -7,18.4 -9.9,36.9 -8.4,56.5 H 731 c 22.1,0 35.5,11.4 35.5,19.1 -55.9,21.8 -78.2,51.4 -75,74.7 L 741,620.6 915.6,218.5 c 11.8,-26.9 14.2,-49.5 5.8,-82.5 z"
             id="path1733"
             style="fill:#6e55dc" />
          <path
             class="st2"
             d="M 625.5,118.5 C 607.2,72.4 561.9,43.2 507.2,43.2 c -15.9,0 -34.4,3.6 -49.1,10.3 -41.9,20.2 -61.8,51.5 -69.7,82.5 -8.4,32.9 -3,61.3 6.7,83.5 L 570.2,620.6 633,183.5 c 3.2,-21.8 0.6,-44.5 -7.5,-65 z"
             id="path1735"
             style="fill:#ef1541" />
          <path
             class="st3"
             d="m 382.5,295.6 c -8.9,-20.2 -24.4,-38.3 -42.3,-51 -39.7,-28.1 -96.6,-30.8 -139.3,-5.1 -13.6,8.2 -27.4,21.3 -36,34.9 -23.9,37.8 -25.8,81.4 -16.7,109.3 9.6,29.7 28.5,50.5 52.1,66.3 l 354.4,237.5 z"
             id="path1737"
             style="fill:#ff7112" />
          <path
             class="st4"
             d="m 239.7,522 c -11.8,-7.9 -37.1,-21.7 -70.5,-21.9 -28.1,-0.2 -53.1,9.2 -73.1,24.6 -25.8,20 -34.8,36.8 -42.4,52.2 -7.1,14.3 -10.9,32.9 -10.5,49 1.2,44.8 16.5,75.4 46.9,99.3 18.6,14.7 51.8,26.9 80.2,26.9 h 413 z"
             id="path1739"
             style="fill:#fccc12" />
          <path
             class="st5"
             d="m 1145.8,274.4 c -8.6,-13.6 -22.3,-26.7 -36,-34.9 -42.7,-25.7 -99.6,-23.1 -139.3,5.1 -18,12.7 -33.5,30.8 -42.3,51 L 756,687.6 1110.4,450.1 c 23.6,-15.8 42.5,-36.6 52.1,-66.3 9.1,-28 7.2,-71.5 -16.7,-109.4 z"
             id="path1741"
             style="fill:#069de0" />
          <path
             class="st6"
             d="m 1257.3,577 c -7.6,-15.4 -15.5,-32.3 -41.4,-52.2 -20,-15.4 -44.6,-24.6 -72.6,-24.6 -35.1,0 -60.7,14 -72.5,21.9 L 726.6,752.2 h 414 c 28.4,0 61.7,-12.2 80.2,-26.9 30.4,-24 45.8,-54.5 46.9,-99.3 0.5,-16.1 -3.3,-34.8 -10.4,-49 z"
             id="path1743"
             style="fill:#05ac3f" />
        </g>
      </g>
    </g>
  </g>
</svg>
