<svg width="470" height="375" xmlns="http://www.w3.org/2000/svg" xmlns:xlink="http://www.w3.org/1999/xlink" overflow="hidden"><defs><clipPath id="clip0"><rect x="405" y="173" width="470" height="375"/></clipPath><clipPath id="clip1"><rect x="406" y="173" width="468" height="270"/></clipPath><clipPath id="clip2"><rect x="406" y="173" width="468" height="270"/></clipPath><clipPath id="clip3"><rect x="406" y="173" width="468" height="270"/></clipPath></defs><g clip-path="url(#clip0)" transform="translate(-405 -173)"><path d="M831.828 493.466C828.35 501.558 824.871 509.65 821.392 517.742 828.333 517.742 835.274 517.742 842.214 517.742 838.752 509.65 835.29 501.558 831.828 493.466ZM601.125 482.572C596.151 482.572 591.437 483.875 586.982 486.481 582.527 489.087 579.049 492.598 576.547 497.013 574.045 501.428 572.794 506.349 572.794 511.776 572.794 519.809 575.563 526.593 581.101 532.127 586.639 537.661 593.313 540.429 601.125 540.429 606.343 540.429 611.171 539.156 615.611 536.611 620.05 534.067 623.514 530.587 626 526.171 628.487 521.756 629.731 516.85 629.731 511.454 629.731 506.088 628.487 501.236 626 496.898 623.514 492.559 620.012 489.087 615.496 486.481 610.981 483.875 606.19 482.572 601.125 482.572ZM713.665 479.936C715.635 479.936 717.604 479.936 719.574 479.936 719.574 502.291 719.574 524.645 719.574 547 717.604 547 715.635 547 713.665 547 713.665 524.645 713.665 502.291 713.665 479.936ZM674.37 479.936C676.447 479.936 678.524 479.936 680.6 479.936 680.6 500.133 680.6 520.329 680.6 540.526 688.597 540.526 696.593 540.526 704.59 540.526 704.59 542.684 704.59 544.842 704.59 547 694.516 547 684.443 547 674.37 547 674.37 524.645 674.37 502.291 674.37 479.936ZM419 479.337C421.3 479.337 423.6 479.337 425.9 479.337 431.227 495.569 436.555 511.801 441.882 528.033 447.426 511.801 452.971 495.569 458.516 479.337 458.922 479.337 459.327 479.337 459.732 479.337 465.315 495.569 470.897 511.801 476.479 528.033 481.909 511.801 487.339 495.569 492.768 479.337 495.094 479.337 497.419 479.337 499.744 479.337 492.195 501.692 484.645 524.047 477.096 546.401 476.681 546.401 476.266 546.401 475.851 546.401 470.294 530.395 464.737 514.39 459.18 498.384 453.626 514.39 448.073 530.395 442.519 546.401 442.102 546.401 441.686 546.401 441.27 546.401 433.846 524.047 426.423 501.692 419 479.337ZM831.106 479.217C831.603 479.217 832.1 479.217 832.597 479.217 842.065 501.572 851.532 523.927 861 546.282 858.809 546.282 856.617 546.282 854.426 546.282 851.233 538.926 848.04 531.571 844.847 524.216 836.101 524.216 827.355 524.216 818.609 524.216 815.446 531.571 812.284 538.926 809.121 546.282 806.858 546.282 804.594 546.282 802.331 546.282 811.923 523.927 821.515 501.572 831.106 479.217ZM739.439 479.217C739.779 479.217 740.119 479.217 740.459 479.217 748.964 497.56 757.469 515.903 765.974 534.246 774.397 515.903 782.821 497.56 791.244 479.217 791.579 479.217 791.914 479.217 792.249 479.217 795.26 501.572 798.271 523.927 801.282 546.282 799.231 546.282 797.181 546.282 795.131 546.282 793.064 530.294 790.996 514.307 788.929 498.32 781.532 514.307 774.135 530.294 766.737 546.282 766.203 546.282 765.668 546.282 765.134 546.282 757.648 530.173 750.163 514.064 742.677 497.955 740.622 514.064 738.567 530.173 736.512 546.282 734.492 546.282 732.473 546.282 730.453 546.282 733.448 523.927 736.444 501.572 739.439 479.217ZM546.589 479.217C548.558 479.217 550.528 479.217 552.497 479.217 552.497 501.572 552.497 523.927 552.497 546.282 550.528 546.282 548.558 546.282 546.589 546.282 546.589 523.927 546.589 501.572 546.589 479.217ZM507.293 479.217C509.37 479.217 511.447 479.217 513.524 479.217 513.524 499.414 513.524 519.611 513.524 539.808 521.52 539.808 529.517 539.808 537.513 539.808 537.513 541.966 537.513 544.124 537.513 546.282 527.44 546.282 517.367 546.282 507.293 546.282 507.293 523.927 507.293 501.572 507.293 479.217ZM600.828 476C611.009 476 619.529 479.416 626.388 486.248 633.247 493.08 636.676 501.49 636.676 511.477 636.676 521.373 633.255 529.767 626.411 536.66 619.567 543.553 611.222 547 601.376 547 591.408 547 582.995 543.569 576.136 536.706 569.277 529.844 565.848 521.541 565.848 511.799 565.848 505.304 567.41 499.284 570.535 493.739 573.659 488.193 577.919 483.851 583.315 480.71 588.71 477.57 594.548 476 600.828 476Z" fill-rule="evenodd"/><g clip-path="url(#clip1)"><g clip-path="url(#clip2)"><g clip-path="url(#clip3)"><path d="M-11.0522-56.0023C-30.4919-38.405-37.567 1.46751-2.52419 24.7762L137.274 120.688 69.4895-34.6045C55.2861-71.2503 16.4291-79.2415-11.0522-56.0023" fill="#F37021" transform="matrix(1 0 -0 1.0016 471.956 305.41)"/><path d="M109.286-131.505C86.5628-131.043 52.4403-103.982 67.6257-62.6597L137.732 102.679 162.367-71.2263C168.068-114.438 135.366-134.384 109.286-131.505" fill="#CC004C" transform="matrix(1 0 -0 1.0016 471.956 305.41)"/><path d="M173.308-77.858 186.564-77.858C186.564-77.858 193.643-77.858 194.606-74.519 189.39-70.2588 175.191-69.7254 177.075-46.969L199.361 102.656 268.988-63.1177C283.23-100.131 253.336-131.044 226.818-131.989 225.58-132.078 224.337-132.15 223.051-132.15 199.249-132.15 171.974-114.852 173.308-77.858" fill="#6460AA" transform="matrix(1 0 -0 1.0016 471.956 305.41)"/><path d="M266.185-33.197 200.328 120.232 340.086 23.8147C372.302 0.964048 367.106-35.5686 349.073-53.6256 341.512-62.1245 327.631-68.6901 312.926-68.6901 295.554-68.6936 276.963-59.4785 266.185-33.197" fill="#0089D0" transform="matrix(1 0 -0 1.0016 471.956 305.41)"/><path d="M324.438 45.6465 193.189 137.323 354.794 137.323C387.949 137.323 409.255 103.136 399.783 71.7658 393.44 52.0483 374.671 36.5695 352.886 36.5472 343.717 36.5506 333.993 39.3133 324.438 45.6465" fill="#0DB14B" transform="matrix(1 0 -0 1.0016 471.956 305.41)"/><path d="M-14.8192 137.323 144.401 137.323 13.1201 45.6465C-17.2088 26.1597-51.3124 37.5618-63.6237 69.8986-74.0593 106.917-48.0034 137.323-14.8192 137.323" fill="#FCB711" transform="matrix(1 0 -0 1.0016 471.956 305.41)"/></g></g></g></g></svg>