<svg width="3247" height="2016" viewBox="0 0 3247 2016" fill="none" xmlns="http://www.w3.org/2000/svg">
<path d="M226.322 1283.81L150 1040.92H213.262L263.871 1202.15L320.195 1040.92H387.946L444.27 1202.15L494.879 1040.92H558.141L481.819 1283.81H409.17L354.071 1126.04L298.972 1283.81H226.322Z" fill="#115999"/>
<path d="M699.766 1289C652.15 1289 606.982 1277.81 564.263 1255.44L593.241 1210.46C594.33 1211.38 599.092 1213.8 607.526 1217.72C616.233 1221.42 629.43 1225.57 647.116 1230.18C665.074 1234.79 682.352 1237.1 698.95 1237.1C711.739 1237.1 722.622 1236.18 731.601 1234.33C740.853 1232.49 747.519 1230.53 751.6 1228.45C755.954 1226.14 759.219 1223.26 761.396 1219.8C763.572 1216.34 764.661 1213.92 764.661 1212.53C764.933 1211.15 764.933 1209.54 764.661 1207.69V1207C764.661 1200.31 761.532 1195.12 755.274 1191.43C749.287 1187.74 740.853 1185.2 729.969 1183.82C719.357 1182.43 708.065 1181.39 696.093 1180.7C684.393 1180.01 671.469 1178.74 657.32 1176.9C643.171 1174.82 631.063 1171.82 620.995 1167.9C588.888 1154.98 572.834 1134.22 572.834 1105.62C572.834 1084.63 583.718 1067.45 605.486 1054.07C627.525 1040.69 658.952 1034 699.766 1034C716.364 1034 734.322 1035.96 753.641 1039.88C772.96 1043.8 788.197 1047.84 799.353 1051.99L816.087 1057.87L789.149 1102.16C760.579 1091.32 730.785 1085.9 699.766 1085.9C679.359 1085.9 663.17 1087.98 651.198 1092.13C639.497 1096.05 633.647 1100.55 633.647 1105.62C633.647 1114.62 641.13 1120.61 656.095 1123.61C671.06 1126.38 690.923 1128.69 715.684 1130.53C740.717 1132.38 760.171 1135.95 774.048 1141.26C808.332 1154.18 825.474 1176.09 825.474 1207C825.474 1219.92 822.617 1231.33 816.903 1241.25C811.461 1251.17 804.387 1259.13 795.68 1265.13C786.973 1270.89 776.769 1275.62 765.069 1279.31C753.641 1283 742.621 1285.54 732.01 1286.92C721.398 1288.31 710.65 1289 699.766 1289Z" fill="#115999"/>
<path d="M950.541 1283.81L839.934 1040.92H905.645L982.375 1209.77L1059.11 1040.92H1124.41L1013.8 1283.81H950.541Z" fill="#115999"/>
<path d="M1217.18 1283.81L1140.86 1040.92H1204.12L1254.73 1202.15L1311.05 1040.92H1378.81L1435.13 1202.15L1485.74 1040.92H1549L1472.68 1283.81H1400.03L1344.93 1126.04L1289.83 1283.81H1217.18Z" fill="#115999"/>
<path d="M371.082 1612.05V1409H418.605V1612.05H371.082Z" fill="#115999"/>
<path d="M451.958 1612.05V1409H499.481L608.151 1540.32V1409H655.357V1612.05H607.834L499.164 1480.44V1612.05H451.958Z" fill="#115999"/>
<path d="M957.82 1409V1452.1H880.833V1612.05H833.626V1452.1H756.639V1409H957.82Z" fill="#115999"/>
<path d="M1135.34 1409H1182.55V1612.05H1135.34V1529.62H1027.62V1612.05H980.097V1409H1027.62V1486.52H1135.34V1409Z" fill="#115999"/>
<path d="M1258.11 1568.66H1394.35V1612.05H1210.91V1409H1392.13V1452.39H1258.11V1486.52H1372.17V1529.62H1258.11V1568.66Z" fill="#115999"/>
<path d="M333.859 1877L248 1673.95H299.008L358.571 1815.1L418.133 1673.95H468.825L382.966 1877H333.859Z" fill="#115999"/>
<path d="M618.728 1877L597.818 1834.19H499.287L478.376 1877H426.101L525.266 1673.95H571.839L671.004 1877H618.728ZM520.514 1790.8H576.591L548.394 1733.24L520.514 1790.8Z" fill="#115999"/>
<path d="M686.909 1877V1673.95H734.433V1833.61H858.627V1877H686.909Z" fill="#115999"/>
<path d="M880.901 1877V1673.95H928.424V1833.61H1052.62V1877H880.901Z" fill="#115999"/>
<path d="M1120.51 1833.61H1256.75V1877H1073.31V1673.95H1254.53V1717.34H1120.51V1751.47H1234.57V1794.56H1120.51V1833.61Z" fill="#115999"/>
<path d="M1504 1673.95L1412.12 1793.41V1877H1364.6V1793.41L1273.04 1673.95H1330.7L1388.36 1749.44L1446.02 1673.95H1504Z" fill="#115999"/>
<path d="M2116.73 1316.55H1587V1317.02L70 1317V1363.99L1587 1364V1367.13C1587 1729.2 1952.37 2016 2411.31 2016C2922.23 2016 3247 1704.11 3247 1385.95C3247 1209.52 3157.39 1039.36 2941.04 907.242C3071.74 812.758 3153.92 655.141 3153.92 532.219C3153.92 261.305 2881.63 0 2430.12 0C2049.4 0 1725.13 257.961 1725.13 557.727V601.625H2273.18V557.305C2273.18 481.633 2336.55 421.844 2429.62 421.844C2526.66 421.844 2601.42 481.633 2601.42 557.305C2601.42 635.906 2534.58 733.734 2403.88 733.734H2284.57V1162.27H2411.31C2575.18 1162.27 2713.3 1222.06 2713.3 1367.13C2713.3 1505.94 2583.1 1600.42 2411.31 1600.42C2254.86 1600.42 2116.73 1505.94 2116.73 1367.13V1316.55Z" fill="#115999"/>
<path d="M1176.71 306.095L949.352 819.507L875.107 325.435C875.77 323.166 876.451 320.986 877.141 318.968C877.854 316.885 878.464 314.984 879.039 313.195C881.047 306.943 882.62 302.049 886.589 295.453C890.925 288.246 894.197 284.672 900.086 278.656C906.751 271.847 911.183 268.69 918.982 263.203C922.963 260.402 925.954 258.636 929.316 256.652C931.099 255.6 932.986 254.486 935.179 253.124C944.921 247.075 960.149 237.671 960.149 237.671C960.149 237.671 957.435 234.624 955.425 232.968C954.844 232.49 954.37 232.075 953.94 231.698C952.741 230.648 951.883 229.897 950.026 228.925C949.692 228.75 949.363 228.576 949.039 228.404C946.923 227.284 944.966 226.248 942.602 225.566C939.772 224.749 933.154 224.906 933.154 224.906H862.534C862.442 214.528 862.8 202.466 864.408 192.961C864.901 190.048 865.328 187.284 865.741 184.617C867.378 174.039 868.782 164.968 873.077 154.063C882.267 130.729 888.569 119.253 905.617 100.81C932.098 72.1614 956.433 59.4633 994.791 51.88C1020.59 46.7792 1036.33 48.4436 1062.13 53.579C1083.45 57.8233 1095.7 61.3655 1114.62 72.0274C1141.68 87.2725 1155.27 100.918 1171.9 127.066C1193.92 161.694 1199.37 187.907 1197.58 228.854C1196.22 260.062 1176.71 306.095 1176.71 306.095Z" fill="#D9D9D9"/>
<path fill-rule="evenodd" clip-rule="evenodd" d="M1229.21 276.861C1245.2 218.216 1232.81 152.982 1196.88 103.754C1157.23 45.602 1086.79 9.78133 1015.39 15.118C940.468 17.2992 873.425 65.9148 839.969 130.415C804.918 62.0607 731.589 12.0937 652.268 14.8379C592.015 13.4298 536.693 42.3663 498.55 85.6791C460.388 129.014 438.636 187.621 446.619 246.64C447.603 256.539 449.329 266.185 451.598 275.621C381.079 228.608 278.857 233.87 210.295 287.366C145.583 334.457 118.014 409.786 136.094 488.166C144.647 533.385 171.893 576.13 207.356 606.911C147.119 607.243 87.6515 632.008 49.395 679.185C5.61478 729.356 -11.9261 800.878 8.70273 865.154C34.5495 955.171 120.168 1014.78 212.343 1011.95C375.632 1012.03 538.937 1012.25 702.247 1012.46H702.274C967.51 1012.82 1232.76 1013.17 1497.98 1012.92L1498.16 1012.92L1498.34 1012.91C1582.3 1010.2 1650.19 945.363 1674.74 869.866C1704.96 787.885 1672.5 693.789 1602.96 644.223C1565.46 615.289 1513.93 604.922 1465.68 606.179C1469.63 603.317 1473.56 600.366 1477.4 597.327C1493.93 584.24 1509.7 568.888 1519.91 550.753C1572.71 470.502 1554.09 353.624 1478.9 291.979C1413.22 230.862 1314.22 225.085 1238.89 271.293C1236.42 272.753 1233.88 274.198 1231.31 275.664C1230.61 276.061 1229.91 276.46 1229.21 276.861Z" fill="url(#paint0_radial_6571_228)"/>
<path opacity="0.31" d="M1515.73 332.774C1505.59 317.584 1493.28 303.771 1478.89 291.979C1413.21 230.862 1314.22 225.085 1238.89 271.293C1236.42 272.753 1233.88 274.198 1231.31 275.664C1230.61 276.061 1229.91 276.46 1229.21 276.86C1245.2 218.216 1232.81 152.982 1196.88 103.754C1157.23 45.602 1086.79 9.78133 1015.38 15.118C940.468 17.2992 873.424 65.9148 839.969 130.415C804.918 62.0607 731.589 12.0937 652.268 14.8379C592.015 13.4298 536.693 42.3663 498.55 85.6791C460.387 129.014 438.635 187.621 446.619 246.64C447.603 256.539 449.329 266.185 451.598 275.621C381.079 228.608 278.856 233.87 210.294 287.366C192.036 300.653 176.735 316.187 164.582 333.404C303.328 330.087 626.236 322.997 852.171 322.984C1065.55 322.972 1365.12 329.262 1515.73 332.774Z" fill="white"/>
<g opacity="0.12" filter="url(#filter0_f_6571_228)">
<path d="M1462.92 977.413C1462.92 977.413 1513.04 974.945 1541.87 962.632C1579.71 946.475 1601.07 930.219 1622.86 895.444C1639.31 869.184 1645.77 851.075 1647.83 820.194C1649.27 798.597 1647.16 786.065 1641.75 765.1C1635.21 739.734 1629.89 724.892 1614.09 703.96C1590.58 672.84 1568.49 659.523 1531.08 648.194C1506.99 640.901 1492.07 639.598 1466.97 641.475C1452.27 642.574 1444 644.115 1429.85 648.194C1409.23 654.137 1379.91 671.038 1379.91 671.038L916.278 977.413H1462.92Z" fill="black"/>
<path d="M1418.04 597.783L954.097 904.198L1187.37 378.795C1187.37 378.795 1203.62 349.196 1218.14 333.464C1228.11 322.665 1234.38 317.072 1246.37 308.542L1247.13 307.999C1267.17 293.733 1280.05 284.567 1304.67 281.157C1337.39 276.627 1368.39 274.163 1404.7 288.62C1429.12 298.344 1441.41 305.594 1460.22 323.897C1475.77 339.024 1484.11 348.645 1494.13 367.851C1508.47 395.312 1512.39 414.127 1512.02 445.074C1511.53 486.057 1505.79 510.989 1481.87 544.349C1463.65 569.774 1418.04 597.783 1418.04 597.783Z" fill="black"/>
<path d="M1177.15 306.174L949.795 819.585L875.393 324.466L875.834 323.003C876.261 321.606 876.698 320.252 877.136 318.971C877.848 316.893 878.459 314.993 879.034 313.197C879.883 310.552 880.658 308.148 881.565 305.754C882.804 302.489 884.296 299.256 886.584 295.456C890.918 288.254 894.192 284.674 900.081 278.659C906.746 271.856 911.18 268.696 918.977 263.206C922.958 260.403 925.948 258.639 929.311 256.655C931.093 255.605 932.981 254.492 935.174 253.128L960.144 237.675C960.144 237.675 957.429 234.63 955.42 232.971C954.903 232.551 954.471 232.184 954.076 231.827L953.933 231.701C952.736 230.651 951.877 229.906 950.021 228.93L949.035 228.405L948.903 228.342C946.831 227.25 944.912 226.242 942.598 225.57C939.766 224.751 933.15 224.909 933.15 224.909H862.976C862.888 214.548 863.248 202.521 864.851 193.039C865.344 190.126 865.772 187.362 866.185 184.695C867.822 174.117 869.226 165.047 873.521 154.141C882.711 130.807 889.012 119.331 906.06 100.888C932.542 72.2395 956.876 59.5414 995.234 51.9581C1021.04 46.8573 1036.78 48.5218 1062.57 53.6571C1083.89 57.9014 1096.15 61.4436 1115.07 72.1055C1142.12 87.3506 1155.71 100.996 1172.34 127.144C1194.36 161.772 1199.81 187.986 1198.02 228.933C1196.66 260.14 1177.15 306.174 1177.15 306.174Z" fill="black"/>
<path d="M731.808 820.929L504.453 307.517C504.453 307.517 484.944 261.484 483.582 230.276C481.794 189.329 487.24 163.116 509.263 128.488C525.893 102.34 539.483 88.6943 566.536 73.4493C585.457 62.7874 597.714 59.2452 619.033 55.0008C644.827 49.8655 660.568 48.201 686.369 53.3019C724.727 60.8851 749.061 73.5833 775.543 102.232C792.591 120.675 798.893 132.151 808.083 155.485C812.378 166.39 813.781 175.461 815.418 186.038L815.419 186.041C815.832 188.708 816.259 191.471 816.752 194.383C820.316 215.454 817.739 249.09 817.739 249.09L731.808 820.929Z" fill="black"/>
<path d="M727.153 905.206L263.212 598.791C263.212 598.791 217.605 570.782 199.377 545.357C175.461 511.997 169.724 487.065 169.23 446.082C168.857 415.135 172.781 396.32 187.116 368.858C197.142 349.653 205.479 340.031 221.029 324.904C239.843 306.602 252.129 299.352 276.554 289.628C312.864 275.171 343.859 277.635 376.578 282.165C401.202 285.575 414.078 294.74 434.118 309.007L434.881 309.55C446.866 318.08 453.136 323.672 463.105 334.472C477.629 350.204 493.883 379.802 493.883 379.802L727.153 905.206Z" fill="black"/>
<path d="M218.243 979.512C218.243 979.512 168.119 977.045 139.284 964.731C101.45 948.574 80.0878 932.319 58.3006 897.544C41.8486 871.284 35.3937 853.174 33.3307 822.294C31.8879 800.697 33.9987 788.165 39.4044 767.2C45.9449 741.834 51.2661 726.992 67.0738 706.059C90.5746 674.94 112.667 661.623 150.082 650.294C174.168 643 189.089 641.697 214.194 643.575C228.885 644.674 237.159 646.214 251.311 650.294C271.927 656.236 301.251 673.137 301.251 673.137L764.881 979.512H218.243Z" fill="black"/>
</g>
<path d="M916.281 977.411H1462.92C1462.92 977.411 1513.04 974.944 1541.88 962.63C1579.71 946.473 1601.07 930.218 1622.86 895.442C1639.31 869.183 1645.77 851.073 1647.83 820.192C1649.27 798.595 1647.16 786.063 1641.76 765.098C1635.22 739.732 1629.9 724.89 1614.09 703.958C1590.59 672.838 1568.49 659.521 1531.08 648.192C1506.99 640.899 1492.07 639.596 1466.97 641.473C1452.28 642.572 1444 644.113 1429.85 648.192C1409.23 654.135 1379.91 671.036 1379.91 671.036L916.281 977.411Z" fill="#319D47"/>
<path d="M916.281 977.411H1462.92C1462.92 977.411 1513.04 974.944 1541.88 962.63C1579.71 946.473 1601.07 930.218 1622.86 895.442C1639.31 869.183 1645.77 851.073 1647.83 820.192C1649.27 798.595 1647.16 786.063 1641.76 765.098C1635.22 739.732 1629.9 724.89 1614.09 703.958C1590.59 672.838 1568.49 659.521 1531.08 648.192C1506.99 640.899 1492.07 639.596 1466.97 641.473C1452.28 642.572 1444 644.113 1429.85 648.192C1409.23 654.135 1379.91 671.036 1379.91 671.036L916.281 977.411Z" fill="url(#paint1_linear_6571_228)"/>
<path d="M916.281 977.411H1462.92C1462.92 977.411 1513.04 974.944 1541.88 962.63C1579.71 946.473 1601.07 930.218 1622.86 895.442C1639.31 869.183 1645.77 851.073 1647.83 820.192C1649.27 798.595 1647.16 786.063 1641.76 765.098C1635.22 739.732 1629.9 724.89 1614.09 703.958C1590.59 672.838 1568.49 659.521 1531.08 648.192C1506.99 640.899 1492.07 639.596 1466.97 641.473C1452.28 642.572 1444 644.113 1429.85 648.192C1409.23 654.135 1379.91 671.036 1379.91 671.036L916.281 977.411Z" fill="url(#paint2_linear_6571_228)"/>
<path d="M916.281 977.411H1462.92C1462.92 977.411 1513.04 974.944 1541.88 962.63C1579.71 946.473 1601.07 930.218 1622.86 895.442C1639.31 869.183 1645.77 851.073 1647.83 820.192C1649.27 798.595 1647.16 786.063 1641.76 765.098C1635.22 739.732 1629.9 724.89 1614.09 703.958C1590.59 672.838 1568.49 659.521 1531.08 648.192C1506.99 640.899 1492.07 639.596 1466.97 641.473C1452.28 642.572 1444 644.113 1429.85 648.192C1409.23 654.135 1379.91 671.036 1379.91 671.036L916.281 977.411Z" fill="url(#paint3_linear_6571_228)"/>
<path d="M916.281 977.411H1462.92C1462.92 977.411 1513.04 974.944 1541.88 962.63C1579.71 946.473 1601.07 930.218 1622.86 895.442C1639.31 869.183 1645.77 851.073 1647.83 820.192C1649.27 798.595 1647.16 786.063 1641.76 765.098C1635.22 739.732 1629.9 724.89 1614.09 703.958C1590.59 672.838 1568.49 659.521 1531.08 648.192C1506.99 640.899 1492.07 639.596 1466.97 641.473C1452.28 642.572 1444 644.113 1429.85 648.192C1409.23 654.135 1379.91 671.036 1379.91 671.036L916.281 977.411Z" fill="url(#paint4_linear_6571_228)"/>
<path d="M957.126 953.071L1350.07 755.136C1350.07 755.136 1386.22 736.863 1411.63 730.91C1412.55 730.695 1413.45 730.483 1414.34 730.274C1430.31 726.524 1441.58 723.878 1458.74 722.836C1489.69 720.955 1510.44 721.288 1540.53 726.776C1573.68 732.823 1594.75 739.152 1614.19 752.801C1614.43 748.957 1614.53 744.457 1614.09 740.896C1613.49 736.095 1612.83 733.422 1611.39 728.803C1608.59 719.84 1600.59 707.303 1600.59 707.303C1600.59 707.303 1613.51 720.068 1622.19 737.537C1623.73 740.535 1631.74 768.986 1632.98 771.803H1636.73C1632.7 762.811 1628.26 735.521 1614.09 718.739C1590.59 687.62 1568.5 674.303 1531.08 662.973C1506.99 655.68 1492.07 654.377 1466.97 656.255C1452.28 657.353 1444 658.894 1429.85 662.973C1409.24 668.916 1379.91 685.817 1379.91 685.817L957.126 953.071Z" fill="url(#paint5_radial_6571_228)"/>
<path d="M957.126 953.071L1350.07 755.136C1350.07 755.136 1386.22 736.863 1411.63 730.91C1412.55 730.695 1413.45 730.483 1414.34 730.274C1430.31 726.524 1441.58 723.878 1458.74 722.836C1489.69 720.955 1510.44 721.288 1540.53 726.776C1573.68 732.823 1594.75 739.152 1614.19 752.801C1614.43 748.957 1614.53 744.457 1614.09 740.896C1613.49 736.095 1612.83 733.422 1611.39 728.803C1608.59 719.84 1600.59 707.303 1600.59 707.303C1600.59 707.303 1613.51 720.068 1622.19 737.537C1623.73 740.535 1631.74 768.986 1632.98 771.803H1636.73C1632.7 762.811 1628.26 735.521 1614.09 718.739C1590.59 687.62 1568.5 674.303 1531.08 662.973C1506.99 655.68 1492.07 654.377 1466.97 656.255C1452.28 657.353 1444 658.894 1429.85 662.973C1409.24 668.916 1379.91 685.817 1379.91 685.817L957.126 953.071Z" fill="url(#paint6_linear_6571_228)"/>
<path d="M954.1 904.206L1418.04 597.791C1418.04 597.791 1463.65 569.782 1481.88 544.357C1505.79 510.997 1511.53 486.065 1512.02 445.082C1512.4 414.135 1508.47 395.32 1494.14 367.858C1484.11 348.653 1475.77 339.031 1460.22 323.904C1441.41 305.602 1429.12 298.352 1404.7 288.628C1368.39 274.171 1337.39 276.635 1304.68 281.165C1279.74 284.618 1266.85 293.973 1246.37 308.55C1234.39 317.08 1228.12 322.672 1218.15 333.472C1203.62 349.204 1187.37 378.802 1187.37 378.802L954.1 904.206Z" fill="#135D9C"/>
<path d="M954.1 904.206L1418.04 597.791C1418.04 597.791 1463.65 569.782 1481.88 544.357C1505.79 510.997 1511.53 486.065 1512.02 445.082C1512.4 414.135 1508.47 395.32 1494.14 367.858C1484.11 348.653 1475.77 339.031 1460.22 323.904C1441.41 305.602 1429.12 298.352 1404.7 288.628C1368.39 274.171 1337.39 276.635 1304.68 281.165C1279.74 284.618 1266.85 293.973 1246.37 308.55C1234.39 317.08 1228.12 322.672 1218.15 333.472C1203.62 349.204 1187.37 378.802 1187.37 378.802L954.1 904.206Z" fill="url(#paint7_linear_6571_228)"/>
<path d="M954.1 904.206L1418.04 597.791C1418.04 597.791 1463.65 569.782 1481.88 544.357C1505.79 510.997 1511.53 486.065 1512.02 445.082C1512.4 414.135 1508.47 395.32 1494.14 367.858C1484.11 348.653 1475.77 339.031 1460.22 323.904C1441.41 305.602 1429.12 298.352 1404.7 288.628C1368.39 274.171 1337.39 276.635 1304.68 281.165C1279.74 284.618 1266.85 293.973 1246.37 308.55C1234.39 317.08 1228.12 322.672 1218.15 333.472C1203.62 349.204 1187.37 378.802 1187.37 378.802L954.1 904.206Z" fill="url(#paint8_linear_6571_228)"/>
<path d="M954.1 904.206L1418.04 597.791C1418.04 597.791 1463.65 569.782 1481.88 544.357C1505.79 510.997 1511.53 486.065 1512.02 445.082C1512.4 414.135 1508.47 395.32 1494.14 367.858C1484.11 348.653 1475.77 339.031 1460.22 323.904C1441.41 305.602 1429.12 298.352 1404.7 288.628C1368.39 274.171 1337.39 276.635 1304.68 281.165C1279.74 284.618 1266.85 293.973 1246.37 308.55C1234.39 317.08 1228.12 322.672 1218.15 333.472C1203.62 349.204 1187.37 378.802 1187.37 378.802L954.1 904.206Z" fill="url(#paint9_linear_6571_228)"/>
<path d="M984.191 849.519L983.768 849.749L1193.08 399.906C1193.08 399.906 1207.66 369.628 1221.99 353.905C1231.83 343.112 1238.51 336.228 1250.34 327.702L1251.09 327.159C1270.87 312.902 1286.1 303.561 1310.4 300.153C1342.69 295.625 1368.37 293.76 1404.21 308.209C1428.31 317.927 1438.42 322.717 1456.99 341.009C1458.85 342.839 1460.61 344.558 1462.3 346.198C1474.53 358.109 1482.57 365.925 1491.26 382.796C1503.59 406.716 1507.51 425.698 1508.07 450.655H1497.34C1497.34 450.655 1498.76 434.587 1497.34 424.452C1496.63 419.407 1496.17 416.546 1494.64 411.687C1492.72 405.639 1487.89 396.905 1487.89 396.905C1487.89 396.905 1488.43 411.662 1487.89 421.093C1487.45 428.73 1485.86 440.577 1485.86 440.577L1458.2 434.53C1458.2 434.53 1412.64 428.655 1383.29 427.14C1376.28 426.778 1369.93 426.344 1363.94 425.935C1342.24 424.454 1325.39 423.303 1300.28 427.14C1298.87 427.355 1297.61 427.53 1296.42 427.695C1292.7 428.212 1289.73 428.624 1285.43 429.827C1278.38 431.799 1274.05 434.12 1268.58 437.05C1266.92 437.943 1265.15 438.892 1263.16 439.905C1262.45 440.268 1261.76 440.62 1261.08 440.964C1250.86 446.169 1244.45 449.436 1234.82 456.702C1226.49 462.981 1221.93 467.738 1215.51 474.42C1214.37 475.613 1213.17 476.867 1211.87 478.202C1199.29 491.174 1191.95 501.266 1183.23 513.261C1179.66 518.168 1175.86 523.394 1171.38 529.265C1170.74 530.102 1170.11 530.923 1169.5 531.73C1155.81 549.643 1147.57 560.427 1134.26 579.655C1111.73 612.213 1099.44 633.569 1081.74 664.336C1078.93 669.215 1075.99 674.33 1072.85 679.765C1038.17 739.755 991.864 833.851 984.191 849.519Z" fill="url(#paint10_radial_6571_228)"/>
<path d="M984.191 849.519L983.768 849.749L1193.08 399.906C1193.08 399.906 1207.66 369.628 1221.99 353.905C1231.83 343.112 1238.51 336.228 1250.34 327.702L1251.09 327.159C1270.87 312.902 1286.1 303.561 1310.4 300.153C1342.69 295.625 1368.37 293.76 1404.21 308.209C1428.31 317.927 1438.42 322.717 1456.99 341.009C1458.85 342.839 1460.61 344.558 1462.3 346.198C1474.53 358.109 1482.57 365.925 1491.26 382.796C1503.59 406.716 1507.51 425.698 1508.07 450.655H1497.34C1497.34 450.655 1498.76 434.587 1497.34 424.452C1496.63 419.407 1496.17 416.546 1494.64 411.687C1492.72 405.639 1487.89 396.905 1487.89 396.905C1487.89 396.905 1488.43 411.662 1487.89 421.093C1487.45 428.73 1485.86 440.577 1485.86 440.577L1458.2 434.53C1458.2 434.53 1412.64 428.655 1383.29 427.14C1376.28 426.778 1369.93 426.344 1363.94 425.935C1342.24 424.454 1325.39 423.303 1300.28 427.14C1298.87 427.355 1297.61 427.53 1296.42 427.695C1292.7 428.212 1289.73 428.624 1285.43 429.827C1278.38 431.799 1274.05 434.12 1268.58 437.05C1266.92 437.943 1265.15 438.892 1263.16 439.905C1262.45 440.268 1261.76 440.62 1261.08 440.964C1250.86 446.169 1244.45 449.436 1234.82 456.702C1226.49 462.981 1221.93 467.738 1215.51 474.42C1214.37 475.613 1213.17 476.867 1211.87 478.202C1199.29 491.174 1191.95 501.266 1183.23 513.261C1179.66 518.168 1175.86 523.394 1171.38 529.265C1170.74 530.102 1170.11 530.923 1169.5 531.73C1155.81 549.643 1147.57 560.427 1134.26 579.655C1111.73 612.213 1099.44 633.569 1081.74 664.336C1078.93 669.215 1075.99 674.33 1072.85 679.765C1038.17 739.755 991.864 833.851 984.191 849.519Z" fill="url(#paint11_linear_6571_228)"/>
<path d="M1177.16 306.181L949.8 819.593L875.398 324.474L875.838 323.01C876.265 321.614 876.703 320.26 877.14 318.979C877.852 316.901 878.464 315 879.038 313.205C879.887 310.56 880.662 308.156 881.569 305.762C882.808 302.497 884.3 299.264 886.588 295.464C890.922 288.262 894.196 284.682 900.086 278.667C906.75 271.864 911.184 268.704 918.982 263.214C922.962 260.411 925.952 258.647 929.316 256.663C931.098 255.613 932.985 254.5 935.178 253.135L960.148 237.682C960.148 237.682 957.433 234.638 955.424 232.979C954.908 232.559 954.475 232.192 954.08 231.835L953.938 231.709C952.741 230.659 951.881 229.914 950.025 228.937L949.04 228.413L948.908 228.35C946.836 227.258 944.917 226.25 942.602 225.578C939.771 224.759 933.154 224.917 933.154 224.917H862.981C862.892 214.556 863.252 202.529 864.856 193.047C865.348 190.134 865.776 187.37 866.189 184.702C867.826 174.125 869.23 165.054 873.525 154.149C882.715 130.815 889.016 119.339 906.064 100.896C932.546 72.2473 956.881 59.5492 995.238 51.9659C1021.04 46.8651 1036.78 48.5296 1062.57 53.6649C1083.89 57.9092 1096.15 61.4514 1115.07 72.1133C1142.12 87.3584 1155.71 101.004 1172.34 127.152C1194.37 161.78 1199.81 187.993 1198.03 228.94C1196.66 260.148 1177.16 306.181 1177.16 306.181Z" fill="#5A2366"/>
<path d="M1177.16 306.181L949.8 819.593L875.398 324.474L875.838 323.01C876.265 321.614 876.703 320.26 877.14 318.979C877.852 316.901 878.464 315 879.038 313.205C879.887 310.56 880.662 308.156 881.569 305.762C882.808 302.497 884.3 299.264 886.588 295.464C890.922 288.262 894.196 284.682 900.086 278.667C906.75 271.864 911.184 268.704 918.982 263.214C922.962 260.411 925.952 258.647 929.316 256.663C931.098 255.613 932.985 254.5 935.178 253.135L960.148 237.682C960.148 237.682 957.433 234.638 955.424 232.979C954.908 232.559 954.475 232.192 954.08 231.835L953.938 231.709C952.741 230.659 951.881 229.914 950.025 228.937L949.04 228.413L948.908 228.35C946.836 227.258 944.917 226.25 942.602 225.578C939.771 224.759 933.154 224.917 933.154 224.917H862.981C862.892 214.556 863.252 202.529 864.856 193.047C865.348 190.134 865.776 187.37 866.189 184.702C867.826 174.125 869.23 165.054 873.525 154.149C882.715 130.815 889.016 119.339 906.064 100.896C932.546 72.2473 956.881 59.5492 995.238 51.9659C1021.04 46.8651 1036.78 48.5296 1062.57 53.6649C1083.89 57.9092 1096.15 61.4514 1115.07 72.1133C1142.12 87.3584 1155.71 101.004 1172.34 127.152C1194.37 161.78 1199.81 187.993 1198.03 228.94C1196.66 260.148 1177.16 306.181 1177.16 306.181Z" fill="url(#paint12_linear_6571_228)"/>
<path d="M1177.16 306.181L949.8 819.593L875.398 324.474L875.838 323.01C876.265 321.614 876.703 320.26 877.14 318.979C877.852 316.901 878.464 315 879.038 313.205C879.887 310.56 880.662 308.156 881.569 305.762C882.808 302.497 884.3 299.264 886.588 295.464C890.922 288.262 894.196 284.682 900.086 278.667C906.75 271.864 911.184 268.704 918.982 263.214C922.962 260.411 925.952 258.647 929.316 256.663C931.098 255.613 932.985 254.5 935.178 253.135L960.148 237.682C960.148 237.682 957.433 234.638 955.424 232.979C954.908 232.559 954.475 232.192 954.08 231.835L953.938 231.709C952.741 230.659 951.881 229.914 950.025 228.937L949.04 228.413L948.908 228.35C946.836 227.258 944.917 226.25 942.602 225.578C939.771 224.759 933.154 224.917 933.154 224.917H862.981C862.892 214.556 863.252 202.529 864.856 193.047C865.348 190.134 865.776 187.37 866.189 184.702C867.826 174.125 869.23 165.054 873.525 154.149C882.715 130.815 889.016 119.339 906.064 100.896C932.546 72.2473 956.881 59.5492 995.238 51.9659C1021.04 46.8651 1036.78 48.5296 1062.57 53.6649C1083.89 57.9092 1096.15 61.4514 1115.07 72.1133C1142.12 87.3584 1155.71 101.004 1172.34 127.152C1194.37 161.78 1199.81 187.993 1198.03 228.94C1196.66 260.148 1177.16 306.181 1177.16 306.181Z" fill="url(#paint13_linear_6571_228)"/>
<path d="M1177.16 306.181L949.8 819.593L875.398 324.474L875.838 323.01C876.265 321.614 876.703 320.26 877.14 318.979C877.852 316.901 878.464 315 879.038 313.205C879.887 310.56 880.662 308.156 881.569 305.762C882.808 302.497 884.3 299.264 886.588 295.464C890.922 288.262 894.196 284.682 900.086 278.667C906.75 271.864 911.184 268.704 918.982 263.214C922.962 260.411 925.952 258.647 929.316 256.663C931.098 255.613 932.985 254.5 935.178 253.135L960.148 237.682C960.148 237.682 957.433 234.638 955.424 232.979C954.908 232.559 954.475 232.192 954.08 231.835L953.938 231.709C952.741 230.659 951.881 229.914 950.025 228.937L949.04 228.413L948.908 228.35C946.836 227.258 944.917 226.25 942.602 225.578C939.771 224.759 933.154 224.917 933.154 224.917H862.981C862.892 214.556 863.252 202.529 864.856 193.047C865.348 190.134 865.776 187.37 866.189 184.702C867.826 174.125 869.23 165.054 873.525 154.149C882.715 130.815 889.016 119.339 906.064 100.896C932.546 72.2473 956.881 59.5492 995.238 51.9659C1021.04 46.8651 1036.78 48.5296 1062.57 53.6649C1083.89 57.9092 1096.15 61.4514 1115.07 72.1133C1142.12 87.3584 1155.71 101.004 1172.34 127.152C1194.37 161.78 1199.81 187.993 1198.03 228.94C1196.66 260.148 1177.16 306.181 1177.16 306.181Z" fill="url(#paint14_linear_6571_228)"/>
<path d="M1177.16 306.181L949.8 819.593L875.398 324.474L875.838 323.01C876.265 321.614 876.703 320.26 877.14 318.979C877.852 316.901 878.464 315 879.038 313.205C879.887 310.56 880.662 308.156 881.569 305.762C882.808 302.497 884.3 299.264 886.588 295.464C890.922 288.262 894.196 284.682 900.086 278.667C906.75 271.864 911.184 268.704 918.982 263.214C922.962 260.411 925.952 258.647 929.316 256.663C931.098 255.613 932.985 254.5 935.178 253.135L960.148 237.682C960.148 237.682 957.433 234.638 955.424 232.979C954.908 232.559 954.475 232.192 954.08 231.835L953.938 231.709C952.741 230.659 951.881 229.914 950.025 228.937L949.04 228.413L948.908 228.35C946.836 227.258 944.917 226.25 942.602 225.578C939.771 224.759 933.154 224.917 933.154 224.917H862.981C862.892 214.556 863.252 202.529 864.856 193.047C865.348 190.134 865.776 187.37 866.189 184.702C867.826 174.125 869.23 165.054 873.525 154.149C882.715 130.815 889.016 119.339 906.064 100.896C932.546 72.2473 956.881 59.5492 995.238 51.9659C1021.04 46.8651 1036.78 48.5296 1062.57 53.6649C1083.89 57.9092 1096.15 61.4514 1115.07 72.1133C1142.12 87.3584 1155.71 101.004 1172.34 127.152C1194.37 161.78 1199.81 187.993 1198.03 228.94C1196.66 260.148 1177.16 306.181 1177.16 306.181Z" fill="url(#paint15_linear_6571_228)"/>
<path d="M1029.87 253.797C1079.57 250.959 1151.08 241.507 1177.83 237.819C1179.21 229.072 1180.45 220.77 1181.16 212.691C1181.88 208.887 1183.07 206.092 1183.07 206.092C1183.07 206.092 1183.12 213.456 1183.07 218.186C1183.03 222.13 1182.39 228.264 1182.39 228.264H1187.66C1192.17 195.266 1191.81 167.283 1164.46 131.769C1164.09 131.286 1163.72 130.81 1163.36 130.34L1159.45 132.858L1157.87 133.439L1157.42 132.859C1139.68 109.897 1130.16 102.643 1105.34 88.263C1087.98 78.2063 1076.73 74.8652 1057.17 70.8618C1033.5 66.0179 1019.05 64.4479 995.38 69.2592C960.183 76.412 937.854 88.3894 913.554 115.412C897.911 132.808 890.779 142.288 882.346 164.298C882.116 164.9 881.893 165.48 881.676 166.043L881.661 166.084C877.256 177.538 875.742 181.475 875.741 199.644C875.741 205.882 876.932 215.127 878.575 224.917H933.154C933.154 224.917 939.771 224.759 942.602 225.578C944.916 226.25 946.836 227.258 948.908 228.35L949.039 228.413L950.025 228.937C951.881 229.914 952.741 230.659 953.937 231.709L954.08 231.835C954.475 232.192 954.908 232.559 955.424 232.979C957.433 234.638 960.148 237.682 960.148 237.682L935.178 253.135C933.842 253.967 932.619 254.705 931.464 255.392C963.525 255.69 1000.35 255.482 1029.87 253.797Z" fill="url(#paint16_radial_6571_228)"/>
<path d="M731.81 820.913L504.454 307.502C504.454 307.502 484.946 261.468 483.584 230.261C481.796 189.314 487.242 163.1 509.265 128.472C525.895 102.324 539.485 88.6787 566.538 73.4336C585.458 62.7718 597.716 59.2295 619.035 54.9852C644.829 49.8499 660.57 48.1854 686.371 53.2862C724.729 60.8695 749.063 73.5677 775.545 102.216C792.593 120.659 798.894 132.135 808.084 155.469C813.463 169.125 814.307 179.903 816.754 194.367C820.317 215.438 817.74 249.074 817.74 249.074L731.81 820.913Z" fill="#CF2027"/>
<path d="M731.81 820.913L504.454 307.502C504.454 307.502 484.946 261.468 483.584 230.261C481.796 189.314 487.242 163.1 509.265 128.472C525.895 102.324 539.485 88.6787 566.538 73.4336C585.458 62.7718 597.716 59.2295 619.035 54.9852C644.829 49.8499 660.57 48.1854 686.371 53.2862C724.729 60.8695 749.063 73.5677 775.545 102.216C792.593 120.659 798.894 132.135 808.084 155.469C813.463 169.125 814.307 179.903 816.754 194.367C820.317 215.438 817.74 249.074 817.74 249.074L731.81 820.913Z" fill="url(#paint17_linear_6571_228)"/>
<path d="M731.81 820.913L504.454 307.502C504.454 307.502 484.946 261.468 483.584 230.261C481.796 189.314 487.242 163.1 509.265 128.472C525.895 102.324 539.485 88.6787 566.538 73.4336C585.458 62.7718 597.716 59.2295 619.035 54.9852C644.829 49.8499 660.57 48.1854 686.371 53.2862C724.729 60.8695 749.063 73.5677 775.545 102.216C792.593 120.659 798.894 132.135 808.084 155.469C813.463 169.125 814.307 179.903 816.754 194.367C820.317 215.438 817.74 249.074 817.74 249.074L731.81 820.913Z" fill="url(#paint18_linear_6571_228)"/>
<path d="M731.81 820.913L504.454 307.502C504.454 307.502 484.946 261.468 483.584 230.261C481.796 189.314 487.242 163.1 509.265 128.472C525.895 102.324 539.485 88.6787 566.538 73.4336C585.458 62.7718 597.716 59.2295 619.035 54.9852C644.829 49.8499 660.57 48.1854 686.371 53.2862C724.729 60.8695 749.063 73.5677 775.545 102.216C792.593 120.659 798.894 132.135 808.084 155.469C813.463 169.125 814.307 179.903 816.754 194.367C820.317 215.438 817.74 249.074 817.74 249.074L731.81 820.913Z" fill="url(#paint19_linear_6571_228)"/>
<path d="M731.81 820.913L504.454 307.502C504.454 307.502 484.946 261.468 483.584 230.261C481.796 189.314 487.242 163.1 509.265 128.472C525.895 102.324 539.485 88.6787 566.538 73.4336C585.458 62.7718 597.716 59.2295 619.035 54.9852C644.829 49.8499 660.57 48.1854 686.371 53.2862C724.729 60.8695 749.063 73.5677 775.545 102.216C792.593 120.659 798.894 132.135 808.084 155.469C813.463 169.125 814.307 179.903 816.754 194.367C820.317 215.438 817.74 249.074 817.74 249.074L731.81 820.913Z" fill="url(#paint20_linear_6571_228)"/>
<path d="M503.777 239.14C530.531 242.827 602.038 252.28 651.736 255.117C697.717 257.743 761.43 256.784 797.238 255.91C800.889 239.052 805.868 213.721 805.868 200.965C805.867 182.795 804.353 178.859 799.948 167.404L799.933 167.363C799.716 166.8 799.493 166.22 799.263 165.619C790.83 143.609 783.698 134.128 768.055 116.732C743.755 89.7097 721.426 77.7323 686.229 70.5795C662.554 65.7682 648.11 67.3382 624.442 72.1821C604.88 76.1855 593.632 79.5266 576.271 89.5833C551.447 103.963 541.925 111.218 524.187 134.18L523.74 134.759L522.16 134.178L518.252 131.66C517.887 132.13 517.518 132.606 517.147 133.089C489.803 168.603 489.436 196.586 493.951 229.584H499.215C499.215 229.584 498.584 223.45 498.54 219.506C498.488 214.776 498.54 207.412 498.54 207.412C498.54 207.412 499.729 210.207 500.452 214.011C501.162 222.09 502.402 230.392 503.777 239.14Z" fill="url(#paint21_radial_6571_228)"/>
<path d="M727.156 905.213L263.215 598.798C263.215 598.798 217.607 570.79 199.38 545.365C175.463 512.005 169.727 487.072 169.233 446.09C168.86 415.143 172.783 396.328 187.118 368.866C197.144 349.66 205.481 340.039 221.031 324.912C239.846 306.61 252.132 299.36 276.556 289.636C312.867 275.179 343.862 277.643 376.58 282.173C401.516 285.626 414.403 294.981 434.884 309.557C446.869 318.088 453.138 323.68 463.108 334.48C477.631 350.212 493.886 379.81 493.886 379.81L727.156 905.213Z" fill="#F06522"/>
<path d="M727.156 905.213L263.215 598.798C263.215 598.798 217.607 570.79 199.38 545.365C175.463 512.005 169.727 487.072 169.233 446.09C168.86 415.143 172.783 396.328 187.118 368.866C197.144 349.66 205.481 340.039 221.031 324.912C239.846 306.61 252.132 299.36 276.556 289.636C312.867 275.179 343.862 277.643 376.58 282.173C401.516 285.626 414.403 294.981 434.884 309.557C446.869 318.088 453.138 323.68 463.108 334.48C477.631 350.212 493.886 379.81 493.886 379.81L727.156 905.213Z" fill="url(#paint22_linear_6571_228)"/>
<path d="M727.156 905.213L263.215 598.798C263.215 598.798 217.607 570.79 199.38 545.365C175.463 512.005 169.727 487.072 169.233 446.09C168.86 415.143 172.783 396.328 187.118 368.866C197.144 349.66 205.481 340.039 221.031 324.912C239.846 306.61 252.132 299.36 276.556 289.636C312.867 275.179 343.862 277.643 376.58 282.173C401.516 285.626 414.403 294.981 434.884 309.557C446.869 318.088 453.138 323.68 463.108 334.48C477.631 350.212 493.886 379.81 493.886 379.81L727.156 905.213Z" fill="url(#paint23_linear_6571_228)"/>
<path d="M697.065 850.527L697.488 850.757L488.174 400.914C488.174 400.914 473.596 370.636 459.262 354.913C449.422 344.12 442.746 337.235 430.917 328.71L430.164 328.167C410.385 313.909 395.159 304.569 370.855 301.161C338.562 296.633 312.887 294.768 277.049 309.216C252.942 318.935 242.838 323.725 224.268 342.017C222.41 343.847 220.645 345.566 218.959 347.206C206.721 359.117 198.689 366.933 189.992 383.804C177.66 407.724 173.746 426.706 173.188 451.663H183.918C183.918 451.663 182.498 435.595 183.918 425.46C184.625 420.414 185.08 417.554 186.617 412.694C188.53 406.646 193.366 397.913 193.366 397.913C193.366 397.913 192.826 412.67 193.366 422.101C193.803 429.738 195.391 441.585 195.391 441.585L223.06 435.538C223.06 435.538 268.612 429.663 297.97 428.148C304.971 427.786 311.328 427.352 317.316 426.943C339.014 425.462 355.866 424.311 380.978 428.148C382.384 428.362 383.646 428.538 384.832 428.702C388.555 429.22 391.521 429.631 395.825 430.835C402.874 432.807 407.206 435.128 412.673 438.058C414.338 438.951 416.109 439.9 418.095 440.913C418.806 441.276 419.497 441.628 420.173 441.972C430.393 447.176 436.809 450.444 446.439 457.71C454.761 463.989 459.327 468.746 465.741 475.428C466.886 476.621 468.09 477.875 469.385 479.21C481.963 492.182 489.302 502.274 498.024 514.269C501.592 519.176 505.392 524.401 509.876 530.273C510.516 531.11 511.143 531.931 511.759 532.738C525.445 550.651 533.684 561.435 546.994 580.663C569.53 613.221 581.816 634.577 599.515 665.344C602.322 670.222 605.265 675.338 608.406 680.773C643.085 740.763 689.392 834.859 697.065 850.527Z" fill="url(#paint24_radial_6571_228)"/>
<path d="M697.065 850.527L697.488 850.757L488.174 400.914C488.174 400.914 473.596 370.636 459.262 354.913C449.422 344.12 442.746 337.235 430.917 328.71L430.164 328.167C410.385 313.909 395.159 304.569 370.855 301.161C338.562 296.633 312.887 294.768 277.049 309.216C252.942 318.935 242.838 323.725 224.268 342.017C222.41 343.847 220.645 345.566 218.959 347.206C206.721 359.117 198.689 366.933 189.992 383.804C177.66 407.724 173.746 426.706 173.188 451.663H183.918C183.918 451.663 182.498 435.595 183.918 425.46C184.625 420.414 185.08 417.554 186.617 412.694C188.53 406.646 193.366 397.913 193.366 397.913C193.366 397.913 192.826 412.67 193.366 422.101C193.803 429.738 195.391 441.585 195.391 441.585L223.06 435.538C223.06 435.538 268.612 429.663 297.97 428.148C304.971 427.786 311.328 427.352 317.316 426.943C339.014 425.462 355.866 424.311 380.978 428.148C382.384 428.362 383.646 428.538 384.832 428.702C388.555 429.22 391.521 429.631 395.825 430.835C402.874 432.807 407.206 435.128 412.673 438.058C414.338 438.951 416.109 439.9 418.095 440.913C418.806 441.276 419.497 441.628 420.173 441.972C430.393 447.176 436.809 450.444 446.439 457.71C454.761 463.989 459.327 468.746 465.741 475.428C466.886 476.621 468.09 477.875 469.385 479.21C481.963 492.182 489.302 502.274 498.024 514.269C501.592 519.176 505.392 524.401 509.876 530.273C510.516 531.11 511.143 531.931 511.759 532.738C525.445 550.651 533.684 561.435 546.994 580.663C569.53 613.221 581.816 634.577 599.515 665.344C602.322 670.222 605.265 675.338 608.406 680.773C643.085 740.763 689.392 834.859 697.065 850.527Z" fill="url(#paint25_linear_6571_228)"/>
<path d="M764.879 979.512H218.241C218.241 979.512 168.117 977.045 139.282 964.731C101.448 948.574 80.0856 932.319 58.2984 897.544C41.8465 871.284 35.3915 853.175 33.3285 822.294C31.8858 800.697 33.9966 788.165 39.4023 767.2C45.9428 741.834 51.264 726.992 67.0716 706.059C90.5724 674.94 112.665 661.623 150.08 650.294C174.166 643 189.087 641.697 214.192 643.575C228.883 644.674 237.157 646.214 251.309 650.294C271.925 656.236 301.249 673.137 301.249 673.137L764.879 979.512Z" fill="#FDC118"/>
<path d="M764.879 979.512H218.241C218.241 979.512 168.117 977.045 139.282 964.731C101.448 948.574 80.0856 932.319 58.2984 897.544C41.8465 871.284 35.3915 853.175 33.3285 822.294C31.8858 800.697 33.9966 788.165 39.4023 767.2C45.9428 741.834 51.264 726.992 67.0716 706.059C90.5724 674.94 112.665 661.623 150.08 650.294C174.166 643 189.087 641.697 214.192 643.575C228.883 644.674 237.157 646.214 251.309 650.294C271.925 656.236 301.249 673.137 301.249 673.137L764.879 979.512Z" fill="url(#paint26_linear_6571_228)"/>
<path d="M764.879 979.512H218.241C218.241 979.512 168.117 977.045 139.282 964.731C101.448 948.574 80.0856 932.319 58.2984 897.544C41.8465 871.284 35.3915 853.175 33.3285 822.294C31.8858 800.697 33.9966 788.165 39.4023 767.2C45.9428 741.834 51.264 726.992 67.0716 706.059C90.5724 674.94 112.665 661.623 150.08 650.294C174.166 643 189.087 641.697 214.192 643.575C228.883 644.674 237.157 646.214 251.309 650.294C271.925 656.236 301.249 673.137 301.249 673.137L764.879 979.512Z" fill="url(#paint27_linear_6571_228)"/>
<path d="M764.879 979.512H218.241C218.241 979.512 168.117 977.045 139.282 964.731C101.448 948.574 80.0856 932.319 58.2984 897.544C41.8465 871.284 35.3915 853.175 33.3285 822.294C31.8858 800.697 33.9966 788.165 39.4023 767.2C45.9428 741.834 51.264 726.992 67.0716 706.059C90.5724 674.94 112.665 661.623 150.08 650.294C174.166 643 189.087 641.697 214.192 643.575C228.883 644.674 237.157 646.214 251.309 650.294C271.925 656.236 301.249 673.137 301.249 673.137L764.879 979.512Z" fill="url(#paint28_linear_6571_228)"/>
<path d="M764.879 979.512H218.241C218.241 979.512 168.117 977.045 139.282 964.731C101.448 948.574 80.0856 932.319 58.2984 897.544C41.8465 871.284 35.3915 853.175 33.3285 822.294C31.8858 800.697 33.9966 788.165 39.4023 767.2C45.9428 741.834 51.264 726.992 67.0716 706.059C90.5724 674.94 112.665 661.623 150.08 650.294C174.166 643 189.087 641.697 214.192 643.575C228.883 644.674 237.157 646.214 251.309 650.294C271.925 656.236 301.249 673.137 301.249 673.137L764.879 979.512Z" fill="url(#paint29_linear_6571_228)"/>
<path d="M724.034 955.173L331.092 757.238C331.092 757.238 294.942 738.964 269.527 733.011C268.608 732.796 267.705 732.584 266.817 732.376C250.846 728.626 239.577 725.98 222.42 724.937C191.471 723.057 170.716 723.39 140.631 728.878C107.482 734.924 86.4061 741.254 66.971 754.902C66.7302 751.058 66.6295 746.559 67.0714 742.998C67.6673 738.196 68.3263 735.524 69.7708 730.904C72.5736 721.941 80.5686 709.404 80.5686 709.404C80.5686 709.404 67.6458 722.17 58.973 739.639C57.4268 742.637 49.4229 771.087 48.1752 773.904H44.4281C48.4623 764.912 52.8993 737.623 67.0707 720.841C90.5715 689.721 112.664 676.404 150.079 665.075C174.165 657.782 189.086 656.479 214.191 658.356C228.882 659.455 237.156 660.996 251.308 665.075C271.924 671.018 301.248 687.919 301.248 687.919L724.034 955.173Z" fill="url(#paint30_radial_6571_228)"/>
<path d="M724.034 955.173L331.092 757.238C331.092 757.238 294.942 738.964 269.527 733.011C268.608 732.796 267.705 732.584 266.817 732.376C250.846 728.626 239.577 725.98 222.42 724.937C191.471 723.057 170.716 723.39 140.631 728.878C107.482 734.924 86.4061 741.254 66.971 754.902C66.7302 751.058 66.6295 746.559 67.0714 742.998C67.6673 738.196 68.3263 735.524 69.7708 730.904C72.5736 721.941 80.5686 709.404 80.5686 709.404C80.5686 709.404 67.6458 722.17 58.973 739.639C57.4268 742.637 49.4229 771.087 48.1752 773.904H44.4281C48.4623 764.912 52.8993 737.623 67.0707 720.841C90.5715 689.721 112.664 676.404 150.079 665.075C174.165 657.782 189.086 656.479 214.191 658.356C228.882 659.455 237.156 660.996 251.308 665.075C271.924 671.018 301.248 687.919 301.248 687.919L724.034 955.173Z" fill="url(#paint31_linear_6571_228)"/>
<defs>
<filter id="filter0_f_6571_228" x="17.3892" y="33.3672" width="1646.38" height="961.648" filterUnits="userSpaceOnUse" color-interpolation-filters="sRGB">
<feFlood flood-opacity="0" result="BackgroundImageFix"/>
<feBlend mode="normal" in="SourceGraphic" in2="BackgroundImageFix" result="shape"/>
<feGaussianBlur stdDeviation="7.75" result="effect1_foregroundBlur_6571_228"/>
</filter>
<radialGradient id="paint0_radial_6571_228" cx="0" cy="0" r="1" gradientUnits="userSpaceOnUse" gradientTransform="translate(842.723 908.859) rotate(-90) scale(977.578 1111.17)">
<stop offset="0.155" stop-color="white"/>
<stop offset="0.595" stop-color="#EDEDED"/>
<stop offset="0.895" stop-color="white"/>
</radialGradient>
<linearGradient id="paint1_linear_6571_228" x1="1500.71" y1="809.428" x2="1593.81" y2="1039.5" gradientUnits="userSpaceOnUse">
<stop stop-color="#103919" stop-opacity="0"/>
<stop offset="0.24" stop-color="#103919" stop-opacity="0.121387"/>
<stop offset="1" stop-color="#103919"/>
</linearGradient>
<linearGradient id="paint2_linear_6571_228" x1="1454.15" y1="809.428" x2="1446.79" y2="1074.82" gradientUnits="userSpaceOnUse">
<stop offset="0.09" stop-color="#103919" stop-opacity="0"/>
<stop offset="0.355" stop-color="#103919" stop-opacity="0.103226"/>
<stop offset="1" stop-color="#103919"/>
</linearGradient>
<linearGradient id="paint3_linear_6571_228" x1="1456.85" y1="934.396" x2="1456.85" y2="977.396" gradientUnits="userSpaceOnUse">
<stop offset="0.09" stop-color="#103919" stop-opacity="0"/>
<stop offset="0.355" stop-color="#103919" stop-opacity="0.103226"/>
<stop offset="1" stop-color="#103919"/>
</linearGradient>
<linearGradient id="paint4_linear_6571_228" x1="1527.71" y1="922.303" x2="1555.18" y2="977.494" gradientUnits="userSpaceOnUse">
<stop offset="0.09" stop-color="#103919" stop-opacity="0"/>
<stop offset="0.355" stop-color="#103919" stop-opacity="0.103226"/>
<stop offset="1" stop-color="#103919"/>
</linearGradient>
<radialGradient id="paint5_radial_6571_228" cx="0" cy="0" r="1" gradientUnits="userSpaceOnUse" gradientTransform="translate(1379.91 889.381) rotate(68.0318) scale(272.404 397.655)">
<stop offset="0.725" stop-color="#4DB749"/>
<stop offset="1" stop-color="#E3F2DF"/>
</radialGradient>
<linearGradient id="paint6_linear_6571_228" x1="1636.36" y1="689.162" x2="1059.27" y2="899.082" gradientUnits="userSpaceOnUse">
<stop offset="0.525" stop-color="#4DB749" stop-opacity="0"/>
<stop offset="1" stop-color="#2AD224"/>
</linearGradient>
<linearGradient id="paint7_linear_6571_228" x1="1232.79" y1="419.078" x2="1456.81" y2="759.289" gradientUnits="userSpaceOnUse">
<stop stop-color="#022342" stop-opacity="0"/>
<stop offset="0.315" stop-color="#022342" stop-opacity="0.08"/>
<stop offset="1" stop-color="#022342"/>
</linearGradient>
<linearGradient id="paint8_linear_6571_228" x1="1302.3" y1="576.297" x2="1350.61" y2="644.359" gradientUnits="userSpaceOnUse">
<stop stop-color="#022342" stop-opacity="0"/>
<stop offset="0.26" stop-color="#022342" stop-opacity="0.08"/>
<stop offset="0.465" stop-color="#022342" stop-opacity="0.206129"/>
<stop offset="1" stop-color="#022342"/>
</linearGradient>
<linearGradient id="paint9_linear_6571_228" x1="1307.7" y1="638.109" x2="1327.82" y2="668.426" gradientUnits="userSpaceOnUse">
<stop stop-color="#022342" stop-opacity="0"/>
<stop offset="0.465" stop-color="#022342" stop-opacity="0.08"/>
<stop offset="1" stop-color="#022342"/>
</linearGradient>
<radialGradient id="paint10_radial_6571_228" cx="0" cy="0" r="1" gradientUnits="userSpaceOnUse" gradientTransform="translate(1330.65 515.825) rotate(90) scale(282.188 241.522)">
<stop offset="0.58" stop-color="#1F6EB0"/>
<stop offset="0.66" stop-color="#2974B4"/>
<stop offset="0.72" stop-color="#4184BC"/>
<stop offset="1" stop-color="white"/>
</radialGradient>
<linearGradient id="paint11_linear_6571_228" x1="1022.23" y1="644.825" x2="1255.44" y2="550.043" gradientUnits="userSpaceOnUse">
<stop offset="0.67" stop-color="#3478B5"/>
<stop offset="1" stop-color="#3478B5" stop-opacity="0"/>
</linearGradient>
<linearGradient id="paint12_linear_6571_228" x1="1030.55" y1="320.984" x2="739.72" y2="355.551" gradientUnits="userSpaceOnUse">
<stop offset="0.12" stop-color="#330F3E" stop-opacity="0"/>
<stop offset="0.275" stop-color="#330F3E" stop-opacity="0.066119"/>
<stop offset="0.375" stop-color="#330F3E" stop-opacity="0.186335"/>
<stop offset="1" stop-color="#330F3E"/>
</linearGradient>
<linearGradient id="paint13_linear_6571_228" x1="920.548" y1="337.781" x2="863.191" y2="344.559" gradientUnits="userSpaceOnUse">
<stop offset="0.12" stop-color="#330F3E" stop-opacity="0"/>
<stop offset="0.275" stop-color="#330F3E" stop-opacity="0.066119"/>
<stop offset="0.375" stop-color="#330F3E" stop-opacity="0.186335"/>
<stop offset="1" stop-color="#330F3E"/>
</linearGradient>
<linearGradient id="paint14_linear_6571_228" x1="1030.55" y1="336.437" x2="1260.51" y2="406.205" gradientUnits="userSpaceOnUse">
<stop offset="0.12" stop-color="#330F3E" stop-opacity="0"/>
<stop offset="0.275" stop-color="#330F3E" stop-opacity="0.066119"/>
<stop offset="0.375" stop-color="#330F3E" stop-opacity="0.186335"/>
<stop offset="1" stop-color="#330F3E"/>
</linearGradient>
<linearGradient id="paint15_linear_6571_228" x1="1108.83" y1="388.172" x2="1142.53" y2="403.063" gradientUnits="userSpaceOnUse">
<stop offset="0.12" stop-color="#330F3E" stop-opacity="0"/>
<stop offset="0.375" stop-color="#330F3E" stop-opacity="0.186335"/>
<stop offset="1" stop-color="#330F3E"/>
</linearGradient>
<radialGradient id="paint16_radial_6571_228" cx="0" cy="0" r="1" gradientUnits="userSpaceOnUse" gradientTransform="translate(1029.2 255.812) rotate(-90) scale(303.687 293.69)">
<stop offset="0.385" stop-color="#74297E"/>
<stop offset="0.505" stop-color="#7E3788"/>
<stop offset="0.56" stop-color="#874491"/>
<stop offset="0.76" stop-color="white"/>
</radialGradient>
<linearGradient id="paint17_linear_6571_228" x1="651.059" y1="322.305" x2="941.889" y2="356.871" gradientUnits="userSpaceOnUse">
<stop offset="0.12" stop-color="#841E2B" stop-opacity="0"/>
<stop offset="0.275" stop-color="#841E2B" stop-opacity="0.066119"/>
<stop offset="0.375" stop-color="#841E2B" stop-opacity="0.186335"/>
<stop offset="1" stop-color="#841E2B"/>
</linearGradient>
<linearGradient id="paint18_linear_6571_228" x1="761.062" y1="339.102" x2="818.418" y2="345.879" gradientUnits="userSpaceOnUse">
<stop offset="0.12" stop-color="#841E2B" stop-opacity="0"/>
<stop offset="0.275" stop-color="#841E2B" stop-opacity="0.066119"/>
<stop offset="0.375" stop-color="#841E2B" stop-opacity="0.186335"/>
<stop offset="1" stop-color="#841E2B"/>
</linearGradient>
<linearGradient id="paint19_linear_6571_228" x1="651.059" y1="337.758" x2="421.103" y2="407.526" gradientUnits="userSpaceOnUse">
<stop offset="0.12" stop-color="#841E2B" stop-opacity="0"/>
<stop offset="0.275" stop-color="#841E2B" stop-opacity="0.066119"/>
<stop offset="0.375" stop-color="#841E2B" stop-opacity="0.186335"/>
<stop offset="1" stop-color="#841E2B"/>
</linearGradient>
<linearGradient id="paint20_linear_6571_228" x1="572.775" y1="389.492" x2="539.081" y2="404.384" gradientUnits="userSpaceOnUse">
<stop offset="0.12" stop-color="#841E2B" stop-opacity="0"/>
<stop offset="0.275" stop-color="#841E2B" stop-opacity="0.066119"/>
<stop offset="0.375" stop-color="#841E2B" stop-opacity="0.186335"/>
<stop offset="1" stop-color="#841E2B"/>
</linearGradient>
<radialGradient id="paint21_radial_6571_228" cx="0" cy="0" r="1" gradientUnits="userSpaceOnUse" gradientTransform="translate(652.409 257.133) rotate(-90) scale(303.687 293.69)">
<stop offset="0.445" stop-color="#E02232"/>
<stop offset="0.56" stop-color="#E9616A"/>
<stop offset="0.76" stop-color="white"/>
</radialGradient>
<linearGradient id="paint22_linear_6571_228" x1="448.464" y1="420.086" x2="224.449" y2="760.297" gradientUnits="userSpaceOnUse">
<stop stop-color="#F04F23" stop-opacity="0"/>
<stop offset="0.315" stop-color="#F04F23" stop-opacity="0.08"/>
<stop offset="1" stop-color="#F04F23"/>
</linearGradient>
<linearGradient id="paint23_linear_6571_228" x1="378.953" y1="577.305" x2="330.649" y2="645.367" gradientUnits="userSpaceOnUse">
<stop stop-color="#F04F23" stop-opacity="0"/>
<stop offset="0.26" stop-color="#F04F23" stop-opacity="0.08"/>
<stop offset="0.465" stop-color="#F04F23" stop-opacity="0.206129"/>
<stop offset="1" stop-color="#F04F23"/>
</linearGradient>
<radialGradient id="paint24_radial_6571_228" cx="0" cy="0" r="1" gradientUnits="userSpaceOnUse" gradientTransform="translate(353.445 464.091) rotate(85.2153) scale(177.995 180.927)">
<stop offset="0.65" stop-color="#F57D2F"/>
<stop offset="0.745" stop-color="#F6904E"/>
<stop offset="0.865" stop-color="#F8A46D"/>
<stop offset="1" stop-color="#FDE4D4"/>
</radialGradient>
<linearGradient id="paint25_linear_6571_228" x1="565.352" y1="554.122" x2="396.296" y2="463.468" gradientUnits="userSpaceOnUse">
<stop offset="0.67" stop-color="#F38144"/>
<stop offset="1" stop-color="#F38144" stop-opacity="0"/>
</linearGradient>
<linearGradient id="paint26_linear_6571_228" x1="180.448" y1="811.529" x2="87.3546" y2="1041.6" gradientUnits="userSpaceOnUse">
<stop stop-color="#94662A" stop-opacity="0"/>
<stop offset="0.24" stop-color="#94662A" stop-opacity="0.121387"/>
<stop offset="1" stop-color="#94662A"/>
</linearGradient>
<linearGradient id="paint27_linear_6571_228" x1="227.014" y1="811.529" x2="234.372" y2="1076.92" gradientUnits="userSpaceOnUse">
<stop offset="0.09" stop-color="#94662A" stop-opacity="0"/>
<stop offset="0.355" stop-color="#94662A" stop-opacity="0.103226"/>
<stop offset="1" stop-color="#94662A"/>
</linearGradient>
<linearGradient id="paint28_linear_6571_228" x1="224.315" y1="936.498" x2="224.314" y2="979.498" gradientUnits="userSpaceOnUse">
<stop offset="0.09" stop-color="#94662A" stop-opacity="0"/>
<stop offset="0.355" stop-color="#94662A" stop-opacity="0.103226"/>
<stop offset="1" stop-color="#94662A"/>
</linearGradient>
<linearGradient id="paint29_linear_6571_228" x1="153.454" y1="924.404" x2="125.98" y2="979.596" gradientUnits="userSpaceOnUse">
<stop offset="0.09" stop-color="#94662A" stop-opacity="0"/>
<stop offset="0.355" stop-color="#94662A" stop-opacity="0.1"/>
<stop offset="1" stop-color="#94662A"/>
</linearGradient>
<radialGradient id="paint30_radial_6571_228" cx="0" cy="0" r="1" gradientUnits="userSpaceOnUse" gradientTransform="translate(301.248 891.482) rotate(113.29) scale(243.491 355.397)">
<stop offset="0.725" stop-color="#FDDC1F"/>
<stop offset="1" stop-color="#F2F1DF"/>
</radialGradient>
<linearGradient id="paint31_linear_6571_228" x1="44.801" y1="691.264" x2="621.887" y2="901.184" gradientUnits="userSpaceOnUse">
<stop offset="0.525" stop-color="#FCDE28" stop-opacity="0"/>
<stop offset="1" stop-color="#FDE500"/>
</linearGradient>
</defs>
</svg>
